<?xml version="1.0" encoding="UTF-8"?>
<svg id="Layer_1" data-name="Layer 1" xmlns="http://www.w3.org/2000/svg" viewBox="0 0 662 828">
  <defs>
    <style>
      .cls-1 {
        fill: none;
        stroke: #e8e8e8;
        stroke-miterlimit: 10;
        stroke-width: 7.89px;
      }
    </style>
  </defs>
  <g id="ECO_SYSTEM_-1" data-name="ECO SYSTEM -1">
    <circle class="cls-1" cx="386.67" cy="414.44" r="52.96"/>
    <path class="cls-1" d="m273.95,589.6c-20.27,11.7-27.21,37.61-15.51,57.88,11.7,20.26,37.61,27.21,57.88,15.51,20.26-11.7,27.21-37.61,15.51-57.88-11.7-20.27-37.61-27.21-57.88-15.51Z"/>
    <circle class="cls-1" cx="238.37" cy="414.44" r="42.37"/>
    <path class="cls-1" d="m450.05,598.01c25.33-14.62,34.01-47.02,19.39-72.35-14.63-25.33-47.02-34.01-72.35-19.39-25.33,14.62-34.01,47.02-19.39,72.35,14.63,25.33,47.02,34.01,72.35,19.39Z"/>
    <path class="cls-1" d="m471.41,744.69c-20.26-11.7-46.18-4.76-57.88,15.51-11.7,20.27-4.76,46.18,15.51,57.88,20.27,11.7,46.18,4.76,57.88-15.51,11.7-20.27,4.76-46.18-15.51-57.88Z"/>
    <path class="cls-1" d="m273.95,239.28c20.26,11.7,46.18,4.76,57.88-15.51,11.7-20.27,4.76-46.18-15.51-57.88-20.27-11.7-46.18-4.76-57.88,15.51-11.7,20.26-4.76,46.18,15.51,57.88Z"/>
    <path class="cls-1" d="m550.85,607.08c-25.33-14.63-57.72-5.95-72.35,19.39-14.63,25.33-5.95,57.72,19.39,72.35,25.33,14.63,57.72,5.95,72.35-19.39,14.63-25.33,5.95-57.72-19.39-72.35Z"/>
    <path class="cls-1" d="m397.08,322.6c25.33,14.63,57.72,5.95,72.35-19.39,14.63-25.33,5.95-57.72-19.39-72.35-25.33-14.63-57.72-5.95-72.35,19.39-14.63,25.33-5.95,57.72,19.39,72.35Z"/>
    <path class="cls-1" d="m471.41,84.2c20.27-11.7,27.21-37.61,15.51-57.88-11.7-20.26-37.61-27.21-57.88-15.51-20.26,11.7-27.21,37.61-15.51,57.88,11.7,20.27,37.61,27.21,57.88,15.51Z"/>
    <path class="cls-1" d="m478.5,202.41c14.63,25.33,47.02,34.01,72.35,19.39,25.33-14.63,34.01-47.02,19.39-72.35-14.63-25.33-47.02-34.01-72.35-19.39-25.33,14.63-34.01,47.02-19.39,72.35Z"/>
    <path class="cls-1" d="m609.11,689.85c0,29.21,23.65,52.9,52.85,52.96v-105.92c-29.2.06-52.85,23.75-52.85,52.96Z"/>
    <path class="cls-1" d="m513.78,414.44c0,81.87,66.34,148.23,148.19,148.29v-296.59c-81.85.06-148.19,66.43-148.19,148.29Z"/>
    <path class="cls-1" d="m609.11,139.03c0,29.21,23.65,52.9,52.85,52.96v-105.92c-29.2.06-52.85,23.75-52.85,52.96Z"/>
    <path class="cls-1" d="m619.7,838.15c0,23.36,18.91,42.31,42.26,42.37v-84.74c-23.35.06-42.26,19-42.26,42.37Z"/>
    <path class="cls-1" d="m619.7-9.26c0,23.36,18.91,42.31,42.26,42.37V-51.63c-23.35.06-42.26,19-42.26,42.37Z"/>
  </g>
</svg>