<?xml version="1.0" encoding="UTF-8"?>
<svg id="Layer_1" data-name="Layer 1" xmlns="http://www.w3.org/2000/svg" viewBox="0 0 512 512">
  <defs>
    <style>
      .cls-1 {
        fill: #353979;
      }

      .cls-2 {
        fill: none;
        stroke: #fff;
        stroke-miterlimit: 10;
      }

      .cls-3 {
        fill: #e43664;
      }
    </style>
  </defs>
  <rect class="cls-2" x="4" y="4" width="504" height="504" transform="translate(512) rotate(90)"/>
  <g id="BESS">
    <g id="ECO_SYSTEM_-1" data-name="ECO SYSTEM -1">
      <circle class="cls-1" cx="255.84" cy="108.42" r="28.41"/>
      <path class="cls-1" d="m161.89,47.97c-6.28-10.87-20.17-14.59-31.04-8.32-10.87,6.28-14.59,20.17-8.32,31.04,6.28,10.87,20.18,14.59,31.04,8.32,10.87-6.28,14.59-20.18,8.32-31.04Z"/>
      <circle class="cls-1" cx="255.84" cy="28.88" r="22.73"/>
      <path class="cls-1" d="m157.38,142.42c7.84,13.59,25.22,18.24,38.81,10.4,13.59-7.84,18.24-25.22,10.4-38.81-7.84-13.59-25.22-18.24-38.81-10.4-13.59,7.84-18.24,25.22-10.4,38.81Z"/>
      <path class="cls-1" d="m78.7,153.88c6.28-10.87,2.55-24.77-8.32-31.04-10.87-6.28-24.77-2.55-31.04,8.32-6.28,10.87-2.55,24.77,8.32,31.04,10.87,6.28,24.77,2.55,31.04-8.32Z"/>
      <path class="cls-1" d="m349.79,47.97c-6.28,10.87-2.55,24.77,8.32,31.04,10.87,6.28,24.77,2.55,31.04-8.32,6.28-10.87,2.55-24.77-8.32-31.04-10.87-6.28-24.77-2.55-31.04,8.32Z"/>
      <path class="cls-1" d="m152.51,196.49c7.84-13.59,3.19-30.96-10.4-38.81-13.59-7.84-30.96-3.19-38.81,10.4-7.84,13.59-3.19,30.96,10.4,38.81,13.59,7.84,30.96,3.19,38.81-10.4Z"/>
      <path class="cls-1" d="m305.1,114.01c-7.84,13.59-3.19,30.96,10.4,38.81,13.59,7.84,30.96,3.19,38.81-10.4,7.85-13.59,3.19-30.96-10.4-38.81-13.59-7.84-30.96-3.19-38.81,10.4Z"/>
      <path class="cls-1" d="m432.97,153.88c6.28,10.87,20.17,14.59,31.04,8.32,10.87-6.28,14.59-20.17,8.32-31.04-6.28-10.87-20.17-14.59-31.04-8.32-10.87,6.28-14.59,20.18-8.32,31.04Z"/>
      <path class="cls-1" d="m369.56,157.68c-13.59,7.84-18.24,25.22-10.4,38.81,7.84,13.59,25.22,18.24,38.81,10.4,13.59-7.84,18.24-25.22,10.4-38.81-7.84-13.59-25.22-18.24-38.81-10.4Z"/>
      <path class="cls-1" d="m108.12,227.74c-15.67,0-28.37,12.69-28.41,28.35h56.81c-.03-15.66-12.74-28.35-28.41-28.35Z"/>
      <path class="cls-1" d="m255.84,176.6c-43.91,0-79.51,35.58-79.54,79.48h159.08c-.03-43.9-35.63-79.48-79.54-79.48Z"/>
      <path class="cls-1" d="m403.56,227.74c-15.67,0-28.37,12.69-28.41,28.35h56.81c-.03-15.66-12.74-28.35-28.41-28.35Z"/>
      <path class="cls-1" d="m28.57,233.42c-12.53,0-22.69,10.14-22.72,22.67h45.45c-.03-12.52-10.19-22.67-22.72-22.67Z"/>
      <path class="cls-1" d="m483.1,233.42c-12.53,0-22.69,10.14-22.72,22.67h45.45c-.03-12.52-10.19-22.67-22.72-22.67Z"/>
    </g>
    <g id="BESS_-_2" data-name="BESS - 2">
      <polygon class="cls-3" points="426.6 426.6 426.6 255.97 381.14 255.97 381.14 381.15 131.14 381.15 131.14 255.97 85.69 255.97 85.69 426.6 426.6 426.6"/>
      <polygon class="cls-3" points="506.14 506.15 506.14 255.97 460.69 255.97 460.69 460.7 51.6 460.7 51.6 255.97 6.14 255.97 6.14 506.15 506.14 506.15"/>
      <polygon class="cls-3" points="347.05 347.06 347.05 255.97 301.6 255.97 301.6 301.6 210.69 301.6 210.69 255.97 165.24 255.97 165.24 347.06 347.05 347.06"/>
    </g>
  </g>
</svg>