<?xml version="1.0" encoding="UTF-8"?>
<svg id="Layer_1" data-name="Layer 1" xmlns="http://www.w3.org/2000/svg" viewBox="0 0 512 512">
  <defs>
    <style>
      .cls-1 {
        fill: #353979;
      }

      .cls-2 {
        fill: none;
        stroke: #fff;
        stroke-miterlimit: 10;
      }

      .cls-3 {
        fill: #e43664;
      }
    </style>
  </defs>
  <rect class="cls-2" x="4" y="4" width="504" height="504" transform="translate(512) rotate(90)"/>
  <g id="POWER">
    <path class="cls-3" d="m300,500.27c4.51,3.57,9.82,5.29,15.1,5.29,7.42,0,14.76-3.4,19.64-9.89l168.39-223.97c3.2-4.17,5.15-9.4,5.28-15.09.01-.52,0-1.05-.01-1.58-.21-5.65-2.22-10.83-5.45-14.96-.93-1.19-1.97-2.28-3.08-3.27-4.31-3.83-9.93-6.16-16.08-6.19h-.09s-.03,0-.05,0h-152.49L468.91,47.36c8.36-11.11,6.35-27.06-4.49-35.62-10.85-8.58-26.39-6.51-34.74,4.61l-168.39,223.97c-3.2,4.17-5.15,9.4-5.28,15.09-.01.52,0,1.05.01,1.58.21,5.65,2.22,10.83,5.45,14.96.93,1.19,1.97,2.28,3.08,3.27,4.31,3.83,9.93,6.16,16.08,6.19h152.63l-137.76,183.24c-8.36,11.11-6.35,27.06,4.49,35.62Z"/>
    <g id="ECO_SYSTEM_-1" data-name="ECO SYSTEM -1">
      <circle class="cls-1" cx="108.27" cy="256.31" r="28.41"/>
      <path class="cls-1" d="m47.81,350.26c-10.87,6.28-14.59,20.17-8.32,31.04,6.28,10.87,20.17,14.59,31.04,8.32,10.87-6.28,14.59-20.18,8.32-31.04-6.28-10.87-20.18-14.59-31.04-8.32Z"/>
      <circle class="cls-1" cx="28.73" cy="256.31" r="22.73"/>
      <path class="cls-1" d="m142.26,354.77c13.59-7.84,18.24-25.22,10.4-38.81-7.84-13.59-25.22-18.24-38.81-10.4-13.59,7.84-18.24,25.22-10.4,38.81,7.84,13.59,25.22,18.24,38.81,10.4Z"/>
      <path class="cls-1" d="m153.72,433.45c-10.87-6.28-24.77-2.55-31.04,8.32-6.28,10.87-2.55,24.77,8.32,31.04,10.87,6.28,24.77,2.55,31.04-8.32,6.28-10.87,2.55-24.77-8.32-31.04Z"/>
      <path class="cls-1" d="m47.81,162.36c10.87,6.28,24.77,2.55,31.04-8.32,6.28-10.87,2.55-24.77-8.32-31.04-10.87-6.28-24.77-2.55-31.04,8.32-6.28,10.87-2.55,24.77,8.32,31.04Z"/>
      <path class="cls-1" d="m196.33,359.64c-13.59-7.84-30.96-3.19-38.81,10.4-7.84,13.59-3.19,30.96,10.4,38.81,13.59,7.84,30.96,3.19,38.81-10.4,7.84-13.59,3.19-30.96-10.4-38.81Z"/>
      <path class="cls-1" d="m113.86,207.05c13.59,7.84,30.96,3.19,38.81-10.4,7.84-13.59,3.19-30.96-10.4-38.81-13.59-7.85-30.96-3.19-38.81,10.4-7.84,13.59-3.19,30.96,10.4,38.81Z"/>
      <path class="cls-1" d="m153.72,79.18c10.87-6.28,14.59-20.17,8.32-31.04-6.28-10.87-20.17-14.59-31.04-8.32-10.87,6.28-14.59,20.17-8.32,31.04,6.28,10.87,20.18,14.59,31.04,8.32Z"/>
      <path class="cls-1" d="m157.53,142.59c7.84,13.59,25.22,18.24,38.81,10.4,13.59-7.84,18.24-25.22,10.4-38.81-7.84-13.59-25.22-18.24-38.81-10.4-13.59,7.84-18.24,25.22-10.4,38.81Z"/>
      <path class="cls-1" d="m227.58,404.03c0,15.67,12.69,28.37,28.35,28.41v-56.81c-15.66.03-28.35,12.74-28.35,28.41Z"/>
      <path class="cls-1" d="m176.45,256.31c0,43.91,35.58,79.51,79.48,79.54v-159.08c-43.9.03-79.48,35.63-79.48,79.54Z"/>
      <path class="cls-1" d="m227.58,108.59c0,15.67,12.69,28.37,28.35,28.41v-56.81c-15.66.03-28.35,12.74-28.35,28.41Z"/>
      <path class="cls-1" d="m233.26,483.58c0,12.53,10.14,22.69,22.67,22.72v-45.45c-12.52.03-22.67,10.19-22.67,22.72Z"/>
      <path class="cls-1" d="m233.26,29.05c0,12.53,10.14,22.69,22.67,22.72V6.32c-12.52.03-22.67,10.19-22.67,22.72Z"/>
    </g>
  </g>
</svg>