<?xml version="1.0" encoding="UTF-8"?>
<svg id="Layer_1" data-name="Layer 1" xmlns="http://www.w3.org/2000/svg" viewBox="0 0 512 512">
  <defs>
    <style>
      .cls-1 {
        fill: #353979;
      }

      .cls-2 {
        fill: none;
        stroke: #fff;
        stroke-miterlimit: 10;
      }

      .cls-3 {
        fill: #f26a2c;
      }
    </style>
  </defs>
  <rect class="cls-2" x="4" y="4" width="504" height="504" transform="translate(512) rotate(90)"/>
  <g id="POWER_-_2" data-name="POWER - 2">
    <g id="ECO_SYSTEM_-2" data-name="ECO SYSTEM -2">
      <path class="cls-1" d="m258,506.3c12.55,0,22.73-10.18,22.73-22.73s-10.17-22.73-22.73-22.73c-.02,0-.04,0-.06,0v45.45s.04,0,.06,0Z"/>
      <path class="cls-1" d="m371.73,157.84c-13.59,7.84-18.24,25.22-10.4,38.81,7.84,13.59,25.22,18.24,38.81,10.4,13.59-7.84,18.24-25.22,10.4-38.81-7.84-13.59-25.22-18.24-38.81-10.4Z"/>
      <path class="cls-1" d="m466.19,162.35c10.87-6.28,14.59-20.18,8.32-31.05-6.28-10.87-20.18-14.59-31.05-8.32-10.87,6.28-14.59,20.18-8.32,31.05,6.28,10.87,20.18,14.59,31.05,8.32Z"/>
      <path class="cls-1" d="m360.27,79.16c10.87,6.28,24.77,2.55,31.05-8.32,6.28-10.87,2.55-24.77-8.32-31.05-10.87-6.28-24.77-2.55-31.05,8.32-6.28,10.87-2.55,24.77,8.32,31.05Z"/>
      <path class="cls-1" d="m317.66,152.97c13.59,7.84,30.96,3.19,38.81-10.4,7.84-13.59,3.19-30.96-10.4-38.81-13.59-7.84-30.96-3.19-38.81,10.4-7.84,13.59-3.19,30.96,10.4,38.81Z"/>
      <path class="cls-1" d="m286.41,108.57c0-15.69-12.72-28.41-28.41-28.41-.02,0-.04,0-.06,0v56.82s.04,0,.06,0c15.69,0,28.41-12.72,28.41-28.41Z"/>
      <path class="cls-1" d="m360.27,433.44c-10.87,6.28-14.59,20.18-8.32,31.05,6.28,10.87,20.18,14.59,31.05,8.32,10.87-6.28,14.59-20.18,8.32-31.05s-20.18-14.59-31.05-8.32Z"/>
      <path class="cls-1" d="m286.41,404.03c0-15.69-12.72-28.41-28.41-28.41-.02,0-.04,0-.06,0v56.82s.04,0,.06,0c15.69,0,28.41-12.72,28.41-28.41Z"/>
      <path class="cls-1" d="m356.47,370.03c-7.84-13.59-25.22-18.24-38.81-10.4-13.59,7.84-18.24,25.22-10.4,38.81,7.84,13.59,25.22,18.24,38.81,10.4,13.59-7.84,18.24-25.22,10.4-38.81Z"/>
      <path class="cls-1" d="m400.14,305.56c-13.59-7.85-30.96-3.19-38.81,10.4-7.84,13.59-3.19,30.96,10.4,38.81,13.59,7.84,30.96,3.19,38.81-10.4,7.84-13.59,3.19-30.96-10.4-38.81Z"/>
      <circle class="cls-1" cx="485.27" cy="256.3" r="22.73" transform="translate(-34.79 81.04) rotate(-9.22)"/>
      <path class="cls-1" d="m466.19,350.26c-10.87-6.28-24.77-2.55-31.05,8.32-6.28,10.87-2.55,24.77,8.32,31.05,10.87,6.28,24.77,2.55,31.05-8.32,6.28-10.87,2.55-24.77-8.32-31.05Z"/>
      <circle class="cls-1" cx="405.73" cy="256.3" r="28.41" transform="translate(13.67 533.06) rotate(-67.5)"/>
      <path class="cls-1" d="m280.73,29.03c0-12.55-10.17-22.73-22.73-22.73-.02,0-.04,0-.06,0v45.45s.04,0,.06,0c12.55,0,22.73-10.18,22.73-22.73Z"/>
      <path class="cls-1" d="m337.55,256.3c0-43.93-35.61-79.55-79.55-79.55-.02,0-.04,0-.06,0v159.09s.04,0,.06,0c43.93,0,79.55-35.61,79.55-79.55Z"/>
    </g>
    <path id="POWER_-_3" data-name="POWER - 3" class="cls-3" d="m197.18,233.27h56.82l-68.18,272.73H4l56.82-227.27H4L72.18,6h181.82l-56.82,227.27Z"/>
  </g>
</svg>