<?xml version="1.0" encoding="UTF-8"?>
<svg id="Layer_1" data-name="Layer 1" xmlns="http://www.w3.org/2000/svg" viewBox="0 0 512 512">
  <defs>
    <style>
      .cls-1 {
        fill: #353979;
      }

      .cls-2 {
        fill: none;
        stroke: #fff;
        stroke-miterlimit: 10;
      }

      .cls-3 {
        fill: #f26a2c;
      }
    </style>
  </defs>
  <rect class="cls-2" x="4" y="4" width="504" height="504" transform="translate(512) rotate(90)"/>
  <g id="SOLAR">
    <g id="ECO_SYSTEM_-1" data-name="ECO SYSTEM -1">
      <circle class="cls-1" cx="256" cy="403.72" r="28.41"/>
      <path class="cls-1" d="m349.95,464.18c6.28,10.87,20.17,14.59,31.04,8.32,10.87-6.28,14.59-20.17,8.32-31.04-6.28-10.87-20.18-14.59-31.04-8.32-10.87,6.28-14.59,20.18-8.32,31.04Z"/>
      <circle class="cls-1" cx="256" cy="483.26" r="22.73"/>
      <path class="cls-1" d="m354.46,369.73c-7.84-13.59-25.22-18.24-38.81-10.4-13.59,7.84-18.24,25.22-10.4,38.81,7.84,13.59,25.22,18.24,38.81,10.4,13.59-7.84,18.24-25.22,10.4-38.81Z"/>
      <path class="cls-1" d="m433.13,358.27c-6.28,10.87-2.55,24.77,8.32,31.04,10.87,6.28,24.77,2.55,31.04-8.32,6.28-10.87,2.55-24.77-8.32-31.04-10.87-6.28-24.77-2.55-31.04,8.32Z"/>
      <path class="cls-1" d="m162.05,464.18c6.28-10.87,2.55-24.77-8.32-31.04-10.87-6.28-24.77-2.55-31.04,8.32-6.28,10.87-2.55,24.77,8.32,31.04,10.87,6.28,24.77,2.55,31.04-8.32Z"/>
      <path class="cls-1" d="m359.33,315.66c-7.84,13.59-3.19,30.96,10.4,38.81,13.59,7.84,30.96,3.19,38.81-10.4,7.84-13.59,3.19-30.96-10.4-38.81-13.59-7.84-30.96-3.19-38.81,10.4Z"/>
      <path class="cls-1" d="m206.74,398.14c7.84-13.59,3.19-30.96-10.4-38.81-13.59-7.84-30.96-3.19-38.81,10.4-7.85,13.59-3.19,30.96,10.4,38.81,13.59,7.84,30.96,3.19,38.81-10.4Z"/>
      <path class="cls-1" d="m78.86,358.27c-6.28-10.87-20.17-14.59-31.04-8.32-10.87,6.28-14.59,20.17-8.32,31.04,6.28,10.87,20.17,14.59,31.04,8.32,10.87-6.28,14.59-20.18,8.32-31.04Z"/>
      <path class="cls-1" d="m142.27,354.46c13.59-7.84,18.24-25.22,10.4-38.81-7.84-13.59-25.22-18.24-38.81-10.4-13.59,7.84-18.24,25.22-10.4,38.81,7.84,13.59,25.22,18.24,38.81,10.4Z"/>
      <path class="cls-1" d="m403.72,284.41c15.67,0,28.37-12.69,28.41-28.35h-56.81c.03,15.66,12.74,28.35,28.41,28.35Z"/>
      <path class="cls-1" d="m256,335.54c43.91,0,79.51-35.58,79.54-79.48h-159.08c.03,43.9,35.63,79.48,79.54,79.48Z"/>
      <path class="cls-1" d="m108.28,284.41c15.67,0,28.37-12.69,28.41-28.35h-56.81c.03,15.66,12.74,28.35,28.41,28.35Z"/>
      <path class="cls-1" d="m483.26,278.73c12.53,0,22.69-10.14,22.72-22.67h-45.45c.03,12.52,10.19,22.67,22.72,22.67Z"/>
      <path class="cls-1" d="m28.73,278.73c12.53,0,22.69-10.14,22.72-22.67H6.01c.03,12.52,10.19,22.67,22.72,22.67Z"/>
    </g>
    <path id="SOLAR_-_1" data-name="SOLAR - 1" class="cls-3" d="m333.6,245.78c95.91-28.68,163.87-54.49,163.87-54.49,0,0-71.76,11.63-169.16,34.75,85.22-52.53,144.18-95.04,144.18-95.04,0,0-66.3,29.81-154.4,77.35,68.72-72.79,114.67-129.12,114.67-129.12,0,0-56.33,45.95-129.12,114.67,47.54-88.1,77.35-154.4,77.35-154.4,0,0-42.52,58.97-95.04,144.18,23.11-97.4,34.75-169.16,34.75-169.16,0,0-25.81,67.96-54.49,163.87-2.88-100.06-10.22-172.39-10.22-172.39,0,0-7.34,72.32-10.22,172.39C217.09,82.48,191.29,14.51,191.29,14.51c0,0,11.63,71.76,34.75,169.16-52.53-85.22-95.04-144.18-95.04-144.18,0,0,29.81,66.3,77.35,154.4C135.54,125.17,79.21,79.22,79.21,79.22c0,0,45.95,56.33,114.67,129.12-88.1-47.54-154.4-77.35-154.4-77.35,0,0,58.97,42.52,144.18,95.04C86.27,202.92,14.51,191.29,14.51,191.29c0,0,67.96,25.81,163.87,54.49-94.86,2.73-164.78,9.47-171.8,10.16h498.82c-7.01-.69-76.93-7.43-171.8-10.16Z"/>
  </g>
</svg>