<?xml version="1.0" encoding="UTF-8"?>
<svg id="Layer_1" data-name="Layer 1" xmlns="http://www.w3.org/2000/svg" viewBox="0 0 512 512">
  <defs>
    <style>
      .cls-1 {
        fill: #353979;
      }

      .cls-2 {
        fill: none;
        stroke: #fff;
        stroke-miterlimit: 10;
      }

      .cls-3 {
        fill: #3fd3e0;
      }
    </style>
  </defs>
  <rect class="cls-2" x="4" y="4" width="504" height="504" transform="translate(512) rotate(90)"/>
  <g id="WIND">
    <g id="ECO_SYSTEM_-1" data-name="ECO SYSTEM -1">
      <circle class="cls-1" cx="108.27" cy="256.31" r="28.41"/>
      <path class="cls-1" d="m47.81,350.26c-10.87,6.28-14.59,20.17-8.32,31.04,6.28,10.87,20.17,14.59,31.04,8.32,10.87-6.28,14.59-20.18,8.32-31.04-6.28-10.87-20.18-14.59-31.04-8.32Z"/>
      <circle class="cls-1" cx="28.73" cy="256.31" r="22.73"/>
      <path class="cls-1" d="m142.26,354.77c13.59-7.84,18.24-25.22,10.4-38.81-7.84-13.59-25.22-18.24-38.81-10.4-13.59,7.84-18.24,25.22-10.4,38.81,7.84,13.59,25.22,18.24,38.81,10.4Z"/>
      <path class="cls-1" d="m153.72,433.45c-10.87-6.28-24.77-2.55-31.04,8.32-6.28,10.87-2.55,24.77,8.32,31.04,10.87,6.28,24.77,2.55,31.04-8.32,6.28-10.87,2.55-24.77-8.32-31.04Z"/>
      <path class="cls-1" d="m47.81,162.36c10.87,6.28,24.77,2.55,31.04-8.32,6.28-10.87,2.55-24.77-8.32-31.04-10.87-6.28-24.77-2.55-31.04,8.32-6.28,10.87-2.55,24.77,8.32,31.04Z"/>
      <path class="cls-1" d="m196.33,359.64c-13.59-7.84-30.96-3.19-38.81,10.4-7.84,13.59-3.19,30.96,10.4,38.81,13.59,7.84,30.96,3.19,38.81-10.4,7.84-13.59,3.19-30.96-10.4-38.81Z"/>
      <path class="cls-1" d="m113.86,207.05c13.59,7.84,30.96,3.19,38.81-10.4,7.84-13.59,3.19-30.96-10.4-38.81-13.59-7.85-30.96-3.19-38.81,10.4-7.84,13.59-3.19,30.96,10.4,38.81Z"/>
      <path class="cls-1" d="m153.72,79.18c10.87-6.28,14.59-20.17,8.32-31.04-6.28-10.87-20.17-14.59-31.04-8.32-10.87,6.28-14.59,20.17-8.32,31.04,6.28,10.87,20.18,14.59,31.04,8.32Z"/>
      <path class="cls-1" d="m157.53,142.59c7.84,13.59,25.22,18.24,38.81,10.4,13.59-7.84,18.24-25.22,10.4-38.81-7.84-13.59-25.22-18.24-38.81-10.4-13.59,7.84-18.24,25.22-10.4,38.81Z"/>
      <path class="cls-1" d="m227.58,404.03c0,15.67,12.69,28.37,28.35,28.41v-56.81c-15.66.03-28.35,12.74-28.35,28.41Z"/>
      <path class="cls-1" d="m176.45,256.31c0,43.91,35.58,79.51,79.48,79.54v-159.08c-43.9.03-79.48,35.63-79.48,79.54Z"/>
      <path class="cls-1" d="m227.58,108.59c0,15.67,12.69,28.37,28.35,28.41v-56.81c-15.66.03-28.35,12.74-28.35,28.41Z"/>
      <path class="cls-1" d="m233.26,483.58c0,12.53,10.14,22.69,22.67,22.72v-45.45c-12.52.03-22.67,10.19-22.67,22.72Z"/>
      <path class="cls-1" d="m233.26,29.05c0,12.53,10.14,22.69,22.67,22.72V6.32c-12.52.03-22.67,10.19-22.67,22.72Z"/>
    </g>
    <g id="WIND_-_2" data-name="WIND - 2">
      <path class="cls-3" d="m281.57,8.63c-8.25-1.72-16.8-2.63-25.57-2.63-.04,0-.08,0-.12,0v10.97c8.14-3.66,16.74-6.48,25.69-8.34Z"/>
      <path class="cls-3" d="m381,182.14h0c60.27,0,110.57,42.66,122.37,99.43,1.72-8.25,2.63-16.8,2.63-25.57,0-69.04-55.96-125-125-125-61.34,0-112.25,44.21-122.86,102.49-.05,0-.1-.01-.16-.02,4.56-27.89,19.62-75.24,69.34-103.94,52.2-30.14,117.09-18.34,155.69,24.92-2.64-8.01-6.13-15.87-10.51-23.46-34.52-59.79-110.97-80.27-170.75-45.75-19.81,11.43-35.28,27.47-45.87,45.97v249.97c18-31.18,22.09-69.45,9.55-104.56.05-.02.09-.05.13-.07,9.99,26.44,20.59,74.95-8.1,124.64-.52.9-1.05,1.78-1.59,2.66v68.74c18.46-10.61,34.46-26.07,45.87-45.84,30.66-53.1,17.85-119.27-27.27-157.61.03-.04.07-.08.1-.12,21.88,17.91,55.28,54.62,55.28,111.97,0,50.86-30.38,94.62-73.98,114.14v10.86s.08,0,.12,0c69.04,0,125-55.96,125-125,0-61.34-44.21-112.25-102.49-122.86,0-.05.01-.1.02-.16,27.89,4.56,75.24,19.62,103.94,69.34,30.14,52.2,18.34,117.09-24.92,155.69,8.01-2.64,15.87-6.13,23.46-10.51,59.79-34.52,80.27-110.97,45.75-170.75-30.66-53.1-94.37-75.09-150.13-55.19-.02-.05-.05-.09-.07-.13,26.44-9.99,74.95-20.59,124.64,8.1,52.2,30.14,74.43,92.23,56.26,147.3,5.61-6.29,10.68-13.24,15.06-20.83,34.52-59.79,14.03-136.24-45.75-170.75-53.1-30.66-119.27-17.85-157.61,27.27-.04-.03-.08-.07-.12-.1,17.91-21.88,54.62-55.28,111.97-55.28Z"/>
      <path class="cls-3" d="m401.83,54.55c-6.29-5.61-13.24-10.68-20.83-15.06-40.1-23.15-87.7-21.56-125.12.05v69c30.61-50.56,91.69-71.88,145.95-53.98Z"/>
    </g>
  </g>
</svg>