<?xml version="1.0" encoding="UTF-8"?>
<svg id="Layer_2" data-name="Layer 2" xmlns="http://www.w3.org/2000/svg" xmlns:xlink="http://www.w3.org/1999/xlink" viewBox="0 0 2604.72 905.07">
  <defs>
    <style>
      .cls-1 {
        fill: url(#linear-gradient-2);
      }

      .cls-2 {
        fill: url(#linear-gradient-17);
      }

      .cls-3 {
        fill: url(#linear-gradient-15);
      }

      .cls-4 {
        fill: url(#linear-gradient-18);
      }

      .cls-5 {
        fill: url(#linear-gradient-14);
      }

      .cls-6 {
        fill: url(#linear-gradient-6);
      }

      .cls-7 {
        fill: url(#linear-gradient-11);
      }

      .cls-8 {
        fill: url(#linear-gradient-10);
      }

      .cls-9 {
        fill: url(#linear-gradient-16);
      }

      .cls-10 {
        fill: #afd6ec;
      }

      .cls-11 {
        fill: url(#linear-gradient-5);
      }

      .cls-12 {
        fill: url(#linear-gradient-7);
      }

      .cls-13 {
        fill: url(#linear-gradient-9);
      }

      .cls-14 {
        fill: url(#linear-gradient-3);
      }

      .cls-15 {
        fill: url(#linear-gradient);
      }

      .cls-16 {
        fill: url(#linear-gradient-4);
      }

      .cls-17 {
        fill: url(#linear-gradient-8);
      }

      .cls-18 {
        fill: url(#linear-gradient-12);
      }

      .cls-19 {
        fill: url(#linear-gradient-13);
      }
    </style>
    <linearGradient id="linear-gradient" x1="357.17" y1="128.41" x2="601.91" y2="333.78" gradientUnits="userSpaceOnUse">
      <stop offset="0" stop-color="#161932"/>
      <stop offset=".32" stop-color="#171b34"/>
      <stop offset=".46" stop-color="#1d223b"/>
      <stop offset=".58" stop-color="#282f48"/>
      <stop offset=".67" stop-color="#37415a"/>
      <stop offset=".76" stop-color="#4a5971"/>
      <stop offset=".83" stop-color="#62768e"/>
      <stop offset=".9" stop-color="#7e99b0"/>
      <stop offset=".97" stop-color="#9ec1d7"/>
      <stop offset=".99" stop-color="#afd6ec"/>
    </linearGradient>
    <linearGradient id="linear-gradient-2" x1="171.58" y1="258.33" x2="491.07" y2="258.33" xlink:href="#linear-gradient"/>
    <linearGradient id="linear-gradient-3" x1="112.92" y1="477.14" x2="357.67" y2="271.77" xlink:href="#linear-gradient"/>
    <linearGradient id="linear-gradient-4" x1="208.64" y1="682.46" x2="264.12" y2="367.83" xlink:href="#linear-gradient"/>
    <linearGradient id="linear-gradient-5" x1="413.93" y1="778.24" x2="254.19" y2="501.55" xlink:href="#linear-gradient"/>
    <linearGradient id="linear-gradient-6" x1="615.71" y1="752.41" x2="320.4" y2="581.91" xlink:href="#linear-gradient"/>
    <linearGradient id="linear-gradient-7" x1="762.73" y1="534.08" x2="462.5" y2="643.35" xlink:href="#linear-gradient"/>
    <linearGradient id="linear-gradient-8" x1="743.02" y1="308.4" x2="583.27" y2="585.09" xlink:href="#linear-gradient"/>
    <linearGradient id="linear-gradient-9" x1="582.85" y1="148.19" x2="638.33" y2="462.83" xlink:href="#linear-gradient"/>
    <linearGradient id="linear-gradient-10" x1="276.98" y1="258.18" x2="491.47" y2="258.18" gradientUnits="userSpaceOnUse">
      <stop offset="0" stop-color="#282944"/>
      <stop offset=".32" stop-color="#2a2b45"/>
      <stop offset=".47" stop-color="#31324c"/>
      <stop offset=".58" stop-color="#3e3f57"/>
      <stop offset=".67" stop-color="#505168"/>
      <stop offset=".75" stop-color="#67687d"/>
      <stop offset=".82" stop-color="#848597"/>
      <stop offset=".89" stop-color="#a6a8b6"/>
      <stop offset=".95" stop-color="#cdcfd9"/>
      <stop offset="1" stop-color="#f3f5fb"/>
    </linearGradient>
    <linearGradient id="linear-gradient-11" x1="510.11" y1="264.85" x2="552.91" y2="264.85" xlink:href="#linear-gradient-10"/>
    <linearGradient id="linear-gradient-12" x1="498.05" y1="357.38" x2="742.07" y2="357.38" xlink:href="#linear-gradient-10"/>
    <linearGradient id="linear-gradient-13" x1="459.92" y1="500.07" x2="813.93" y2="500.07" xlink:href="#linear-gradient-10"/>
    <linearGradient id="linear-gradient-14" x1="413.78" y1="606.88" x2="712.51" y2="606.88" xlink:href="#linear-gradient-10"/>
    <linearGradient id="linear-gradient-15" x1="381" y1="647.11" x2="485.13" y2="647.11" xlink:href="#linear-gradient-10"/>
    <linearGradient id="linear-gradient-16" x1="237.38" y1="594.33" x2="377.75" y2="594.33" xlink:href="#linear-gradient-10"/>
    <linearGradient id="linear-gradient-17" x1="86.36" y1="473.23" x2="404.39" y2="473.23" xlink:href="#linear-gradient-10"/>
    <linearGradient id="linear-gradient-18" x1="101.91" y1="340.47" x2="449.22" y2="340.47" xlink:href="#linear-gradient-10"/>
  </defs>
  <g id="Layer_1-2" data-name="Layer 1">
    <g>
      <path class="cls-10" d="m1142.33,738.78c-1.61,0-2.81.31-3.61.93-.81.62-1.64,1.61-2.5,2.97l-50.07,95.72-50.42-95.72c-.74-1.36-1.55-2.35-2.41-2.97-.87-.62-2.1-.93-3.71-.93-1.48,0-2.69.46-3.61,1.39s-1.39,2.32-1.39,4.17v121.8c0,1.73.46,3.09,1.39,4.08.93.99,2.19,1.48,3.8,1.48,1.73,0,3.03-.5,3.89-1.48.86-.99,1.3-2.35,1.3-4.08v-104.36l45.79,86.01c.62,1.11,1.33,2.01,2.13,2.69.8.68,1.95,1.02,3.43,1.02,1.36,0,2.41-.31,3.15-.93.74-.62,1.42-1.54,2.04-2.78l45.23-85.74v104.1c0,1.73.46,3.09,1.39,4.08.93.99,2.25,1.48,3.99,1.48s3.03-.5,3.89-1.48c.86-.99,1.3-2.35,1.3-4.08v-121.8c0-1.85-.46-3.24-1.39-4.17-.93-.93-2.13-1.39-3.61-1.39Z"/>
      <path class="cls-10" d="m1232.7,782.71c-4.76-2.47-10.78-3.71-18.08-3.71-5.07,0-10.29.71-15.66,2.13-5.38,1.42-10.66,3.55-15.85,6.4-1.24.62-2.1,1.42-2.6,2.41-.49.99-.65,2.01-.46,3.06.19,1.05.56,1.95,1.11,2.69s1.36,1.24,2.41,1.48c1.05.25,2.26,0,3.61-.74,4.94-2.72,9.61-4.7,14-5.93,4.39-1.23,8.93-1.85,13.63-1.85,7.29,0,12.61,1.89,15.94,5.65,3.34,3.77,5,9.8,5,18.07v6.67h-5.75c-13.84,0-24.72.77-32.63,2.32-7.91,1.55-13.53,4.23-16.87,8.06-3.34,3.83-5.01,9.08-5.01,15.76,0,5.07,1.39,9.64,4.17,13.72,2.78,4.08,6.55,7.29,11.31,9.64,4.76,2.35,10.16,3.52,16.22,3.52,5.19,0,9.89-.93,14.09-2.78,4.2-1.85,7.72-4.51,10.57-7.97,1.66-2.01,3.01-4.27,4.08-6.75v11.38c0,1.85.49,3.28,1.48,4.26.99.99,2.35,1.48,4.08,1.48s3.03-.5,3.89-1.48c.86-.99,1.3-2.41,1.3-4.26v-53.02c0-7.79-1.14-14.15-3.43-19.09-2.29-4.94-5.81-8.65-10.57-11.12Zm-.46,66c-2.35,4.45-5.53,7.94-9.55,10.47-4.02,2.53-8.68,3.8-14,3.8-6.55,0-11.74-1.73-15.57-5.19-3.83-3.46-5.75-7.97-5.75-13.53,0-4.45,1.24-7.91,3.71-10.38,2.47-2.47,6.83-4.17,13.07-5.1,6.24-.93,14.92-1.39,26.05-1.39h5.56v6.12c0,5.69-1.18,10.75-3.52,15.2Z"/>
      <path class="cls-10" d="m1321.78,779.75c-.99-.74-2.23-1.05-3.71-.93-8.04.12-14.92,2.16-20.67,6.12-4.41,3.03-7.77,7.06-10.1,12.05v-11.68c0-1.98-.46-3.46-1.39-4.45-.93-.99-2.26-1.48-3.99-1.48-1.85,0-3.28.49-4.26,1.48-.99.99-1.48,2.47-1.48,4.45v80.64c0,1.85.49,3.28,1.48,4.26.99.99,2.41,1.48,4.26,1.48,1.98,0,3.43-.5,4.36-1.48.93-.99,1.39-2.41,1.39-4.26v-48.02c0-8.4,2.41-15.08,7.23-20.02,4.82-4.94,11.62-7.85,20.39-8.71l2.6-.18c1.97-.25,3.4-.84,4.26-1.76.86-.93,1.23-2.25,1.11-3.99,0-1.6-.49-2.78-1.48-3.52Z"/>
      <path class="cls-10" d="m1363.24,824.1l40.11-36.57c1.23-1.36,1.88-2.63,1.95-3.8.06-1.17-.34-2.19-1.21-3.06-.87-.86-2.04-1.3-3.52-1.3-1.73,0-3.12.37-4.17,1.11-1.05.74-2.26,1.73-3.61,2.97l-41.53,38h-.37v-76.94c0-1.98-.49-3.43-1.48-4.36-.99-.93-2.35-1.39-4.08-1.39-1.85,0-3.28.46-4.26,1.39-.99.93-1.48,2.38-1.48,4.36v121.43c0,1.85.49,3.28,1.48,4.26.99.99,2.41,1.48,4.26,1.48,3.71,0,5.56-1.92,5.56-5.75v-38.56h.37l45.42,40.04c1.61,1.48,2.97,2.57,4.08,3.24,1.11.68,2.47,1.02,4.08,1.02,1.48,0,2.66-.43,3.52-1.3.86-.86,1.27-1.95,1.21-3.24-.06-1.3-.83-2.63-2.32-3.99l-44-39.07Z"/>
      <path class="cls-10" d="m1491.31,790.78c-3.28-3.77-7.23-6.67-11.86-8.71-4.63-2.04-9.98-3.06-16.03-3.06-8.28,0-15.61,1.98-21.97,5.93-6.37,3.96-11.34,9.43-14.92,16.41-3.58,6.98-5.38,15.17-5.38,24.56s1.79,17.74,5.38,24.66c3.58,6.92,8.71,12.24,15.39,15.94,6.67,3.71,14.65,5.56,23.92,5.56,5.56,0,11.12-.83,16.69-2.5,5.56-1.67,10.32-4.11,14.27-7.32,1.24-.86,2.07-1.82,2.5-2.87.43-1.05.49-2.04.18-2.97s-.86-1.7-1.67-2.32c-.8-.62-1.79-.93-2.97-.93s-2.38.43-3.61,1.3c-4.08,2.97-8.25,5.07-12.51,6.3-4.26,1.24-8.68,1.85-13.25,1.85-10.51,0-18.67-3.18-24.47-9.55-5.44-5.95-8.29-14.35-8.64-25.12h63.89c1.61,0,2.87-.43,3.8-1.3.93-.86,1.39-2.16,1.39-3.89,0-6.8-.87-12.88-2.6-18.26-1.73-5.38-4.24-9.95-7.51-13.72Zm-55.52,15.02c2.35-5.5,5.87-9.83,10.57-12.98,4.7-3.15,10.44-4.73,17.24-4.73,6.05,0,11.15,1.36,15.29,4.08,4.14,2.72,7.26,6.58,9.36,11.59,1.86,4.43,2.89,9.72,3.1,15.85h-58.87c.44-5.07,1.54-9.68,3.3-13.81Z"/>
      <path class="cls-10" d="m1570.01,860.57c-1.11,0-2.5.28-4.17.83-1.67.56-3.74.83-6.21.83-7.17,0-12.3-1.98-15.39-5.93-3.09-3.95-4.63-9.7-4.63-17.24v-49.31h25.03c1.73,0,3.03-.4,3.89-1.2.86-.8,1.3-1.95,1.3-3.43,0-1.36-.43-2.44-1.3-3.24-.87-.8-2.17-1.2-3.89-1.2h-25.03v-23.17c0-1.98-.49-3.43-1.48-4.36-.99-.93-2.35-1.39-4.08-1.39-1.85,0-3.28.46-4.26,1.39-.99.93-1.48,2.38-1.48,4.36v23.17h-13.72c-1.61,0-2.91.4-3.89,1.2-.99.81-1.48,1.89-1.48,3.24,0,1.48.49,2.63,1.48,3.43.99.81,2.29,1.2,3.89,1.2h13.72v50.8c0,6.8,1.11,12.51,3.34,17.15,2.23,4.63,5.56,8.19,10.01,10.66,4.45,2.47,10.01,3.71,16.69,3.71,1.97,0,4.14-.22,6.49-.65,2.35-.43,4.2-.89,5.56-1.39,1.11-.25,1.88-.86,2.32-1.85.43-.99.65-1.98.65-2.97,0-1.61-.34-2.78-1.02-3.52-.68-.74-1.45-1.11-2.32-1.11Z"/>
      <path class="cls-10" d="m1599.58,798.28c2.66-3.09,5.9-5.44,9.73-7.04,3.83-1.61,8.28-2.41,13.35-2.41,3.34,0,6.77.53,10.29,1.58,3.52,1.05,7.01,3,10.48,5.84,1.11.99,2.19,1.45,3.24,1.39,1.05-.06,1.95-.37,2.69-.93.74-.56,1.3-1.3,1.67-2.22.37-.93.43-1.88.19-2.87-.25-.99-.8-1.85-1.67-2.6-3.96-3.58-8.34-6.15-13.16-7.69-4.82-1.54-9.52-2.32-14.09-2.32-6.55,0-12.45,1.08-17.71,3.24-5.25,2.16-9.7,5.22-13.35,9.18-3.65,3.96-6.43,8.75-8.34,14.37-1.92,5.62-2.87,12.02-2.87,19.19,0,9.39,1.7,17.64,5.1,24.75,3.4,7.11,8.25,12.61,14.55,16.5,6.3,3.89,13.84,5.84,22.62,5.84,4.57,0,9.27-.74,14.09-2.22,4.82-1.48,9.15-4.02,12.98-7.6.86-.74,1.42-1.6,1.67-2.6.25-.99.22-1.95-.09-2.87-.31-.93-.83-1.67-1.58-2.22-.74-.56-1.64-.86-2.69-.93-1.05-.06-2.13.4-3.24,1.39-3.46,2.84-6.95,4.79-10.48,5.84-3.52,1.05-6.95,1.58-10.29,1.58-10.01,0-17.7-3.3-23.08-9.92-5.38-6.61-8.06-15.73-8.06-27.35,0-5.81.68-10.97,2.04-15.48,1.36-4.51,3.37-8.31,6.03-11.4Z"/>
      <path class="cls-10" d="m1723.05,782.71c-4.76-2.47-10.78-3.71-18.07-3.71-5.07,0-10.29.71-15.67,2.13-5.38,1.42-10.66,3.55-15.85,6.4-1.24.62-2.1,1.42-2.6,2.41-.49.99-.65,2.01-.46,3.06.19,1.05.56,1.95,1.11,2.69.56.74,1.36,1.24,2.41,1.48,1.05.25,2.25,0,3.61-.74,4.94-2.72,9.61-4.7,14-5.93,4.38-1.23,8.93-1.85,13.63-1.85,7.29,0,12.61,1.89,15.94,5.65,3.34,3.77,5.01,9.8,5.01,18.07v6.67h-5.75c-13.84,0-24.72.77-32.63,2.32-7.91,1.55-13.53,4.23-16.87,8.06-3.34,3.83-5,9.08-5,15.76,0,5.07,1.39,9.64,4.17,13.72,2.78,4.08,6.55,7.29,11.31,9.64,4.76,2.35,10.16,3.52,16.22,3.52,5.19,0,9.89-.93,14.09-2.78,4.2-1.85,7.72-4.51,10.57-7.97,1.66-2.02,3.01-4.27,4.08-6.75v11.38c0,1.85.49,3.28,1.48,4.26.99.99,2.35,1.48,4.08,1.48s3.03-.5,3.89-1.48c.86-.99,1.3-2.41,1.3-4.26v-53.02c0-7.79-1.15-14.15-3.43-19.09-2.29-4.94-5.81-8.65-10.57-11.12Zm-.46,66c-2.35,4.45-5.53,7.94-9.55,10.47-4.02,2.53-8.68,3.8-14,3.8-6.55,0-11.74-1.73-15.57-5.19-3.83-3.46-5.75-7.97-5.75-13.53,0-4.45,1.23-7.91,3.71-10.38,2.47-2.47,6.83-4.17,13.07-5.1,6.24-.93,14.92-1.39,26.05-1.39h5.56v6.12c0,5.69-1.18,10.75-3.52,15.2Z"/>
      <path class="cls-10" d="m1806.56,823.31l-16.13-3.71c-5.19-1.23-8.99-3.03-11.4-5.38-2.41-2.35-3.61-5.44-3.61-9.27,0-5.07,1.95-9.08,5.84-12.05,3.89-2.97,9.42-4.45,16.59-4.45,4.08,0,8.09.65,12.05,1.95,3.95,1.3,7.72,3.31,11.31,6.02,1.11.74,2.16,1.11,3.15,1.11s1.85-.31,2.6-.93c.74-.62,1.27-1.39,1.58-2.32.31-.93.31-1.88,0-2.87-.31-.99-.96-1.85-1.95-2.6-3.71-3.34-8.04-5.81-12.98-7.42-4.94-1.6-10.14-2.41-15.57-2.41-6.67,0-12.58,1.08-17.71,3.24-5.13,2.16-9.08,5.22-11.86,9.18-2.78,3.96-4.17,8.59-4.17,13.9,0,6.18,1.85,11.22,5.56,15.11,3.71,3.89,9.46,6.71,17.24,8.43l16.13,3.71c5.68,1.36,9.79,3.12,12.33,5.28,2.53,2.16,3.8,5.22,3.8,9.18,0,4.82-1.98,8.65-5.93,11.49-3.96,2.84-9.7,4.26-17.24,4.26-4.57,0-9.15-.62-13.72-1.85-4.57-1.23-9.27-3.46-14.09-6.67-1.11-.74-2.16-1.05-3.15-.93-.99.12-1.83.53-2.5,1.2-.68.68-1.11,1.51-1.3,2.5-.19.99-.12,1.95.19,2.87.31.93.95,1.7,1.95,2.32,4.94,3.59,10.16,6.12,15.67,7.6,5.5,1.48,11.03,2.22,16.59,2.22,10.63,0,19.06-2.32,25.31-6.95,6.24-4.63,9.36-10.91,9.36-18.82,0-6.18-1.98-11.09-5.93-14.74-3.96-3.64-9.95-6.4-17.98-8.25Z"/>
      <path class="cls-10" d="m1899.81,860.57c-1.11,0-2.5.28-4.17.83-1.67.56-3.74.83-6.21.83-7.17,0-12.3-1.98-15.39-5.93-3.09-3.95-4.63-9.7-4.63-17.24v-49.31h25.03c1.73,0,3.03-.4,3.89-1.2.86-.8,1.3-1.95,1.3-3.43,0-1.36-.43-2.44-1.3-3.24-.87-.8-2.17-1.2-3.89-1.2h-25.03v-23.17c0-1.98-.49-3.43-1.48-4.36-.99-.93-2.35-1.39-4.08-1.39-1.85,0-3.28.46-4.26,1.39-.99.93-1.48,2.38-1.48,4.36v23.17h-13.72c-1.61,0-2.91.4-3.89,1.2-.99.81-1.48,1.89-1.48,3.24,0,1.48.49,2.63,1.48,3.43.99.81,2.29,1.2,3.89,1.2h13.72v50.8c0,6.8,1.11,12.51,3.34,17.15,2.23,4.63,5.56,8.19,10.01,10.66,4.45,2.47,10.01,3.71,16.69,3.71,1.97,0,4.14-.22,6.49-.65,2.35-.43,4.2-.89,5.56-1.39,1.11-.25,1.88-.86,2.32-1.85.43-.99.65-1.98.65-2.97,0-1.61-.34-2.78-1.02-3.52-.68-.74-1.45-1.11-2.32-1.11Z"/>
      <path class="cls-10" d="m2041.08,826.83c-2.84-5.56-6.02-9.58-9.55-12.05-1.4-.98-2.89-1.76-4.47-2.35,3.91-.71,7.51-1.78,10.78-3.21,6.49-2.84,11.4-7.01,14.74-12.51,3.34-5.5,5.01-12.08,5.01-19.74,0-11.86-3.71-21.01-11.12-27.44-7.42-6.42-18.04-9.64-31.89-9.64h-43.57c-1.73,0-3.12.49-4.17,1.48-1.05.99-1.58,2.47-1.58,4.45v119.95c0,1.85.49,3.31,1.48,4.36.99,1.05,2.35,1.58,4.08,1.58,1.97,0,3.43-.53,4.36-1.58.93-1.05,1.39-2.5,1.39-4.36v-51.72h26.51c6.67,0,11.99.96,15.94,2.87,3.95,1.92,7.54,5.84,10.75,11.77l20.77,38.75c.74,1.36,1.64,2.41,2.69,3.15,1.05.74,2.38,1.11,3.98,1.11,1.36,0,2.47-.4,3.34-1.21.86-.8,1.33-1.85,1.39-3.15.06-1.3-.34-2.62-1.2-3.99l-19.65-36.52Zm-64.51-22.43v-54.69h36.52c11,0,19.25,2.32,24.75,6.95,5.5,4.63,8.25,11.4,8.25,20.3s-2.75,15.85-8.25,20.49c-5.5,4.63-13.75,6.95-24.75,6.95h-36.52Z"/>
      <path class="cls-10" d="m2148.14,790.78c-3.28-3.77-7.23-6.67-11.86-8.71-4.63-2.04-9.98-3.06-16.03-3.06-8.28,0-15.61,1.98-21.97,5.93-6.37,3.96-11.34,9.43-14.92,16.41-3.58,6.98-5.38,15.17-5.38,24.56s1.79,17.74,5.38,24.66c3.58,6.92,8.71,12.24,15.39,15.94,6.67,3.71,14.65,5.56,23.92,5.56,5.56,0,11.12-.83,16.69-2.5,5.56-1.67,10.32-4.11,14.27-7.32,1.24-.86,2.07-1.82,2.5-2.87.43-1.05.49-2.04.18-2.97s-.86-1.7-1.67-2.32c-.8-.62-1.79-.93-2.97-.93s-2.38.43-3.61,1.3c-4.08,2.97-8.25,5.07-12.51,6.3-4.26,1.24-8.68,1.85-13.25,1.85-10.51,0-18.67-3.18-24.47-9.55-5.44-5.95-8.29-14.35-8.64-25.12h63.89c1.61,0,2.87-.43,3.8-1.3.93-.86,1.39-2.16,1.39-3.89,0-6.8-.87-12.88-2.6-18.26-1.73-5.38-4.24-9.95-7.51-13.72Zm-55.52,15.02c2.35-5.5,5.87-9.83,10.57-12.98,4.7-3.15,10.44-4.73,17.24-4.73,6.05,0,11.15,1.36,15.29,4.08,4.14,2.72,7.26,6.58,9.36,11.59,1.86,4.43,2.89,9.72,3.1,15.85h-58.87c.44-5.07,1.54-9.68,3.3-13.81Z"/>
      <path class="cls-10" d="m2245.1,784.75c-6-3.83-13.01-5.75-21.04-5.75s-15.57,2.16-21.51,6.49c-4.39,3.2-7.72,7.25-10.01,12.14v-12.32c0-1.98-.49-3.46-1.48-4.45-.99-.99-2.35-1.48-4.08-1.48-1.85,0-3.28.49-4.26,1.48-.99.99-1.48,2.47-1.48,4.45v114.01c0,1.85.49,3.27,1.48,4.26.99.99,2.41,1.48,4.26,1.48,1.73,0,3.09-.5,4.08-1.48.99-.99,1.48-2.41,1.48-4.26v-45.67c2.29,4.75,5.63,8.73,10.01,11.93,5.93,4.33,13.1,6.49,21.51,6.49s15.2-1.88,21.13-5.65c5.93-3.77,10.53-9.14,13.81-16.13,3.27-6.98,4.91-15.23,4.91-24.75s-1.64-17.73-4.91-24.66c-3.28-6.92-7.91-12.3-13.9-16.13Zm3.61,60.81c-2.47,5.56-5.97,9.8-10.48,12.7-4.51,2.91-9.8,4.36-15.85,4.36-9.15,0-16.44-3.21-21.88-9.64-5.44-6.43-8.16-15.57-8.16-27.44,0-7.79,1.24-14.43,3.71-19.93,2.47-5.5,5.96-9.7,10.48-12.61,4.51-2.9,9.79-4.36,15.85-4.36,9.15,0,16.44,3.22,21.88,9.64,5.44,6.43,8.16,15.51,8.16,27.25,0,7.79-1.24,14.46-3.71,20.02Z"/>
      <path class="cls-10" d="m2345.67,784.75c-6.18-3.83-13.53-5.75-22.06-5.75-6.18,0-11.84,1.08-16.96,3.24-5.13,2.16-9.52,5.32-13.16,9.46-3.65,4.14-6.43,9.05-8.34,14.74-1.92,5.69-2.87,12.05-2.87,19.1,0,9.52,1.7,17.74,5.1,24.66,3.4,6.92,8.18,12.3,14.37,16.13,6.18,3.83,13.47,5.75,21.88,5.75,6.42,0,12.17-1.08,17.24-3.24,5.07-2.16,9.42-5.28,13.07-9.36,3.64-4.08,6.42-8.96,8.34-14.65,1.91-5.68,2.87-12.11,2.87-19.28,0-9.39-1.7-17.58-5.1-24.56-3.4-6.98-8.19-12.39-14.37-16.22Zm4.36,60.81c-2.41,5.56-5.87,9.8-10.38,12.7-4.51,2.91-9.86,4.36-16.03,4.36-9.02,0-16.25-3.21-21.69-9.64-5.44-6.43-8.16-15.57-8.16-27.44,0-7.79,1.2-14.43,3.61-19.93,2.41-5.5,5.87-9.7,10.38-12.61,4.51-2.9,9.79-4.36,15.85-4.36,9.27,0,16.59,3.22,21.97,9.64,5.38,6.43,8.06,15.51,8.06,27.25,0,7.79-1.21,14.46-3.61,20.02Z"/>
      <path class="cls-10" d="m2434.84,779.75c-.99-.74-2.23-1.05-3.71-.93-8.04.12-14.92,2.16-20.67,6.12-4.41,3.03-7.77,7.06-10.1,12.05v-11.68c0-1.98-.46-3.46-1.39-4.45-.93-.99-2.26-1.48-3.99-1.48-1.85,0-3.28.49-4.26,1.48-.99.99-1.48,2.47-1.48,4.45v80.64c0,1.85.49,3.28,1.48,4.26.99.99,2.41,1.48,4.26,1.48,1.98,0,3.43-.5,4.36-1.48.93-.99,1.39-2.41,1.39-4.26v-48.02c0-8.4,2.41-15.08,7.23-20.02,4.82-4.94,11.62-7.85,20.39-8.71l2.6-.18c1.97-.25,3.4-.84,4.26-1.76.86-.93,1.23-2.25,1.11-3.99,0-1.6-.49-2.78-1.48-3.52Z"/>
      <path class="cls-10" d="m2503.06,860.57c-1.11,0-2.5.28-4.17.83-1.67.56-3.74.83-6.21.83-7.17,0-12.3-1.98-15.39-5.93-3.09-3.95-4.63-9.7-4.63-17.24v-49.31h25.03c1.73,0,3.03-.4,3.89-1.2.86-.8,1.3-1.95,1.3-3.43,0-1.36-.43-2.44-1.3-3.24-.87-.8-2.16-1.2-3.89-1.2h-25.03v-23.17c0-1.98-.49-3.43-1.48-4.36s-2.35-1.39-4.08-1.39c-1.85,0-3.28.46-4.26,1.39-.99.93-1.48,2.38-1.48,4.36v23.17h-13.72c-1.61,0-2.9.4-3.89,1.2-.99.81-1.48,1.89-1.48,3.24,0,1.48.49,2.63,1.48,3.43.99.81,2.28,1.2,3.89,1.2h13.72v50.8c0,6.8,1.11,12.51,3.34,17.15,2.22,4.63,5.56,8.19,10.01,10.66,4.45,2.47,10.01,3.71,16.68,3.71,1.98,0,4.14-.22,6.49-.65,2.35-.43,4.2-.89,5.56-1.39,1.11-.25,1.88-.86,2.32-1.85.43-.99.65-1.98.65-2.97,0-1.61-.34-2.78-1.02-3.52-.68-.74-1.45-1.11-2.32-1.11Z"/>
      <path class="cls-10" d="m2577.58,831.56c-3.96-3.64-9.95-6.4-17.98-8.25l-16.13-3.71c-5.19-1.23-8.99-3.03-11.4-5.38-2.41-2.35-3.61-5.44-3.61-9.27,0-5.07,1.95-9.08,5.84-12.05,3.89-2.97,9.42-4.45,16.59-4.45,4.08,0,8.09.65,12.05,1.95,3.95,1.3,7.72,3.31,11.31,6.02,1.11.74,2.16,1.11,3.15,1.11s1.85-.31,2.6-.93c.74-.62,1.27-1.39,1.58-2.32.31-.93.31-1.88,0-2.87-.31-.99-.96-1.85-1.95-2.6-3.71-3.34-8.03-5.81-12.98-7.42-4.94-1.6-10.13-2.41-15.57-2.41-6.67,0-12.58,1.08-17.71,3.24-5.13,2.16-9.08,5.22-11.86,9.18-2.78,3.96-4.17,8.59-4.17,13.9,0,6.18,1.85,11.22,5.56,15.11,3.71,3.89,9.46,6.71,17.24,8.43l16.13,3.71c5.68,1.36,9.79,3.12,12.33,5.28,2.53,2.16,3.8,5.22,3.8,9.18,0,4.82-1.98,8.65-5.93,11.49-3.96,2.84-9.7,4.26-17.24,4.26-4.57,0-9.15-.62-13.72-1.85-4.57-1.23-9.27-3.46-14.09-6.67-1.11-.74-2.16-1.05-3.15-.93-.99.12-1.82.53-2.5,1.2-.68.68-1.11,1.51-1.3,2.5-.19.99-.13,1.95.18,2.87s.96,1.7,1.95,2.32c4.94,3.59,10.16,6.12,15.67,7.6,5.5,1.48,11.03,2.22,16.59,2.22,10.63,0,19.06-2.32,25.3-6.95,6.24-4.63,9.36-10.91,9.36-18.82,0-6.18-1.98-11.09-5.93-14.74Z"/>
    </g>
    <g>
      <path class="cls-10" d="m1134.91,256.67c48.95,0,93.24-28.99,112.84-73.85l1.4-3.21-26.34-11.51-1.4,3.21c-15.03,34.39-48.98,56.61-86.5,56.61-46.83,0-86.25-34.11-93.26-79.98h216.35v-14.37c0-67.87-55.22-123.09-123.09-123.09s-123.09,55.22-123.09,123.09,55.22,123.09,123.09,123.09Zm-93.26-137.46c7-45.86,46.42-79.98,93.26-79.98s86.25,34.11,93.26,79.98h-186.51Z"/>
      <path class="cls-10" d="m1404.3,256.67c45.76,0,87.48-25.15,108.89-65.64l1.64-3.09-25.41-13.43-1.64,3.09c-16.41,31.04-48.39,50.33-83.47,50.33-52.02,0-94.35-42.32-94.35-94.35s42.32-94.35,94.35-94.35c35.08,0,67.06,19.28,83.47,50.33l1.64,3.09,25.41-13.43-1.63-3.09c-21.4-40.49-63.12-65.64-108.89-65.64-67.87,0-123.09,55.22-123.09,123.09s55.22,123.09,123.09,123.09Z"/>
      <path class="cls-10" d="m1673.69,256.67c67.87,0,123.09-55.22,123.09-123.09s-55.22-123.09-123.09-123.09-123.09,55.22-123.09,123.09,55.22,123.09,123.09,123.09Zm-94.35-123.09c0-52.02,42.32-94.35,94.35-94.35s94.35,42.32,94.35,94.35-42.32,94.35-94.35,94.35-94.35-42.32-94.35-94.35Z"/>
      <path class="cls-10" d="m2212.24,319.01c-67.87,0-123.09,55.22-123.09,123.09s55.22,123.09,123.09,123.09c48.95,0,93.24-28.99,112.84-73.85l1.4-3.21-26.34-11.51-1.4,3.21c-15.03,34.39-48.98,56.61-86.5,56.61-46.83,0-86.25-34.11-93.26-79.98h216.35v-14.37c0-67.87-55.22-123.09-123.09-123.09Zm-93.26,108.72c7-45.86,46.42-79.98,93.26-79.98s86.25,34.11,93.26,79.98h-186.51Z"/>
      <path class="cls-10" d="m1500.61,333.38c0,52.02-42.32,94.35-94.35,94.35s-94.35-42.32-94.35-94.35v-3.5h-28.74v3.5c0,30.88,11.53,60.42,32.46,83.2,20.07,21.84,47.05,35.63,76.26,39.05v98.69h28.74v-98.69c29.21-3.41,56.19-17.2,76.26-39.05,20.93-22.78,32.46-52.33,32.46-83.2v-3.5h-28.74v3.5Z"/>
      <path class="cls-10" d="m1942.85,319.01c-67.87,0-123.09,55.22-123.09,123.09v3.5h28.74v-3.5c0-46.83,34.11-86.25,79.98-93.25v205.47h28.74v-205.47c45.86,7,79.98,46.42,79.98,93.25v3.5h28.74v-3.5c0-67.87-55.22-123.09-123.09-123.09Z"/>
      <path class="cls-10" d="m1134.68,347.75c44.63,0,83.5,31.68,92.43,75.32l.7,3.43,28.16-5.76-.7-3.43c-5.6-27.38-20.62-52.3-42.29-70.19-21.97-18.13-49.78-28.11-78.3-28.11s-56.4,10.01-78.38,28.17c-21.68,17.92-36.69,42.89-42.25,70.32l-2.86,14.07,212.01,43.27c-13.65,37.01-48.74,61.61-88.52,61.61-44.63,0-83.5-31.68-92.43-75.32l-.7-3.43-28.16,5.76.7,3.43c5.6,27.38,20.62,52.31,42.29,70.19,21.97,18.13,49.78,28.11,78.3,28.11s56.39-10,78.38-28.17c21.68-17.92,36.69-42.89,42.25-70.32l2.86-14.07-212.01-43.27c13.65-37.01,48.74-61.61,88.52-61.61Z"/>
      <path class="cls-10" d="m1673.46,347.75c44.63,0,83.5,31.68,92.43,75.32l.7,3.43,28.16-5.76-.7-3.43c-5.6-27.38-20.62-52.31-42.29-70.19-21.97-18.13-49.78-28.11-78.3-28.11s-56.39,10.01-78.38,28.17c-21.68,17.92-36.69,42.89-42.25,70.32l-2.86,14.07,212.01,43.27c-13.65,37.01-48.74,61.61-88.52,61.61-44.63,0-83.5-31.68-92.43-75.32l-.7-3.43-28.16,5.76.7,3.43c5.6,27.38,20.62,52.3,42.29,70.19,21.97,18.13,49.78,28.11,78.3,28.11s56.39-10,78.38-28.17c21.68-17.92,36.69-42.89,42.25-70.32l2.86-14.07-212.01-43.27c13.65-37.01,48.74-61.61,88.52-61.61Z"/>
      <path class="cls-10" d="m2568.68,355.06c-12.06-12.05-26.17-21.3-41.56-27.4l-19.32,23.74c7.54,2.15,14.77,5.26,21.57,9.29l-47.74,58.66-47.73-58.66c6.81-4.03,14.03-7.14,21.57-9.29l-19.32-23.74c-15.39,6.11-29.5,15.35-41.55,27.4-23.25,23.25-36.06,54.16-36.06,87.04,0,48.95,28.99,93.24,73.86,112.85l3.2,1.4,11.51-26.34-3.2-1.4c-34.41-15.03-56.63-48.98-56.63-86.51,0-20.38,6.29-39.58,18.24-55.78l6.71-6.71,69.4,85.29,69.41-85.29,6.7,6.71c11.96,16.2,18.24,35.4,18.24,55.78,0,37.53-22.22,71.48-56.61,86.51l-3.2,1.4,11.51,26.34,3.2-1.4c44.85-19.61,73.84-63.9,73.84-112.85,0-32.88-12.79-63.79-36.04-87.04Z"/>
    </g>
    <g>
      <polygon class="cls-15" points="552.65 289.39 552.65 289.4 533.43 359.13 528.71 376.26 510.35 442.89 491.07 400.76 462.3 337.92 454.91 321.77 424.8 256 363.14 121.29 529.65 87.2 552.65 289.39"/>
      <polygon class="cls-1" points="491.07 400.76 449.22 380.88 386.78 351.23 370.74 343.61 305.42 312.59 171.58 249.03 277.22 115.89 424.8 256 454.91 321.77 462.3 337.92 491.07 400.76"/>
      <polygon class="cls-14" points="449.22 380.88 404.39 392.56 337.51 409.98 337.5 409.98 320.31 414.45 250.31 432.68 106.94 470.02 102.29 300.12 305.42 312.59 370.74 343.61 386.78 351.23 449.22 380.88"/>
      <polygon class="cls-16" points="404.39 392.56 377.54 430.33 337.5 486.66 337.5 486.67 337.49 486.67 327.21 501.15 285.31 560.08 285.31 560.09 285.3 560.1 199.48 680.85 86.7 553.69 250.31 432.68 320.31 414.45 337.5 409.98 337.51 409.98 404.39 392.56"/>
      <polygon class="cls-11" points="405.88 782.88 237.75 757.97 285.3 560.1 285.31 560.09 285.31 560.08 327.21 501.15 337.49 486.67 337.5 486.67 337.5 486.66 377.54 430.33 381.25 476.51 386.79 545.4 388.21 563.11 394.01 635.21 405.88 782.88"/>
      <polygon class="cls-6" points="629.58 728.37 484.77 817.35 394.01 635.21 388.21 563.11 386.79 545.4 381.25 476.51 413.78 509.5 462.3 558.71 474.78 571.37 525.56 622.87 629.58 728.37"/>
      <polygon class="cls-12" points="765.9 542.81 712.17 704.06 525.56 622.87 474.78 571.37 462.3 558.71 413.78 509.5 459.91 513.87 459.92 513.87 528.71 520.37 546.41 522.05 618.41 528.86 765.9 542.81"/>
      <polygon class="cls-17" points="813.54 471.11 618.41 528.86 546.41 522.05 528.71 520.37 459.92 513.87 498.05 487.56 554.94 448.32 569.57 438.23 629.1 397.17 751.06 313.05 813.54 471.11"/>
      <polygon class="cls-13" points="741.46 227.49 629.1 397.17 569.57 438.23 554.94 448.32 498.05 487.56 510.35 442.9 510.35 442.89 528.71 376.26 533.43 359.13 552.65 289.4 552.65 289.39 592 146.57 741.46 227.49"/>
      <g>
        <circle class="cls-10" cx="442.84" cy="86.82" r="86.81"/>
        <circle class="cls-10" cx="210.47" cy="171.39" r="86.81" transform="translate(-60.93 175.39) rotate(-40)"/>
        <circle class="cls-10" cx="86.83" cy="385.55" r="86.81" transform="translate(-307.94 404.11) rotate(-80)"/>
        <circle class="cls-10" cx="129.77" cy="629.07" r="86.82" transform="translate(-297.15 149.17) rotate(-30)"/>
        <circle class="cls-10" cx="319.2" cy="788.02" r="86.82" transform="translate(-530.47 818.45) rotate(-70)"/>
        <circle class="cls-10" cx="566.48" cy="788.02" r="86.81" transform="translate(-235.36 241.27) rotate(-20)"/>
        <circle class="cls-10" cx="755.91" cy="629.07" r="86.81" transform="translate(-166.84 969.18) rotate(-60)"/>
        <circle class="cls-10" cx="798.86" cy="385.55" r="86.82" transform="translate(-54.81 144.58) rotate(-10)"/>
        <circle class="cls-10" cx="675.21" cy="171.39" r="86.82" transform="translate(109.9 578.47) rotate(-50)"/>
      </g>
      <polygon class="cls-8" points="276.98 115.59 351.01 185.67 424.96 255.83 424.99 255.86 425.01 255.9 491.07 400.76 424.59 256.1 424.65 256.17 350.77 185.92 276.98 115.59"/>
      <polygon class="cls-7" points="529.66 86.82 541.33 188.08 552.88 289.36 552.89 289.41 552.88 289.45 510.35 442.89 552.43 289.33 552.43 289.42 540.98 188.12 529.66 86.82"/>
      <polygon class="cls-18" points="741.72 227.19 685.56 312.28 629.3 397.3 629.27 397.33 629.23 397.36 498.05 487.56 628.97 396.98 628.91 397.04 685.26 312.09 741.72 227.19"/>
      <polygon class="cls-19" points="813.93 471.04 716.22 500.12 618.48 529.08 618.44 529.09 618.39 529.09 459.92 513.87 618.43 528.63 618.35 528.64 716.12 499.78 813.93 471.04"/>
      <polygon class="cls-5" points="712.51 704.26 618.97 663.72 525.47 623.08 525.43 623.06 525.4 623.03 413.78 509.5 525.73 622.71 525.66 622.66 619.11 663.4 712.51 704.26"/>
      <polygon class="cls-3" points="484.91 817.72 439.3 726.54 393.81 635.31 393.79 635.27 393.78 635.23 381.25 476.51 394.24 635.19 394.22 635.11 439.62 726.38 484.91 817.72"/>
      <polygon class="cls-9" points="237.62 758.33 261.3 659.16 285.09 560.03 285.1 559.98 285.13 559.95 377.54 430.33 285.5 560.21 285.54 560.13 261.64 659.25 237.62 758.33"/>
      <polygon class="cls-2" points="86.36 553.89 168.23 493.14 250.18 432.5 250.21 432.47 250.26 432.46 404.39 392.56 250.37 432.9 250.45 432.87 168.44 493.43 86.36 553.89"/>
      <polygon class="cls-4" points="101.91 300.05 203.68 306.15 305.44 312.36 305.48 312.36 305.52 312.38 449.22 380.88 305.33 312.8 305.41 312.82 203.65 306.5 101.91 300.05"/>
    </g>
  </g>
</svg>