<svg id="Layer_3" data-name="Layer 3" xmlns="http://www.w3.org/2000/svg" viewBox="0 0 200 200"><defs><style>.cls-1{fill:#25bd8e;}</style></defs><path class="cls-1" d="M77.14,166.24A6.87,6.87,0,0,0,86.8,165l46.82-60.73a6.85,6.85,0,0,0,1.47-4.1,2.94,2.94,0,0,0,0-.42,6.88,6.88,0,0,0-1.52-4.06,7.16,7.16,0,0,0-.85-.89,6.89,6.89,0,0,0-4.48-1.68H85.8l38.31-49.69A6.89,6.89,0,1,0,113.2,35L66.38,95.75a6.79,6.79,0,0,0-1.47,4.09,3.08,3.08,0,0,0,0,.43,6.88,6.88,0,0,0,1.52,4,7.16,7.16,0,0,0,.85.89,6.89,6.89,0,0,0,4.48,1.68H114.2L75.89,156.58A6.89,6.89,0,0,0,77.14,166.24Z"/></svg>