<?xml version="1.0" encoding="UTF-8"?>
<svg id="Layer_4" data-name="Layer 4" xmlns="http://www.w3.org/2000/svg" viewBox="0 0 489.84 100">
  <defs>
    <style>
      .cls-1 {
        fill: #2251ff;
      }

      .cls-2 {
        fill: #142146;
      }
    </style>
  </defs>
  <path class="cls-2" d="M145.97,28.09c-1.8,4.36-3.42,8.29-5.04,12.23-1.93,4.71-3.76,9.46-5.82,14.11-1.1,2.47-.49,3.13,2.09,3.03,3.99-.15,7.99.07,11.97-.08,2.16-.08,3.26.76,3.97,2.74,1.66,4.6,3.44,9.15,5.25,13.69.88,2.2.35,3.1-2.1,3.08-8.88-.06-17.77.09-26.64-.09-2.79-.06-4.1.94-5.03,3.47-1.86,5.05-4.11,9.96-6,15-.86,2.28-2.08,3.25-4.62,3.18-6.58-.17-13.17-.16-19.76,0-2.39.05-3.89-.79-5.17-2.73-5.54-8.42-11.22-16.74-16.73-25.18-1.28-1.96-2.7-2.93-5.11-2.8-3.28.18-6.59.14-9.88.01-2.36-.09-3.13.85-3.1,3.16.1,7.98-.07,15.97.09,23.95.05,2.81-.98,3.66-3.66,3.58-4.79-.15-9.58-.03-14.37-.05-3.7-.01-3.85-.15-3.85-3.92,0-28.34,0-56.69,0-85.03,0-1.5.1-3-.02-4.49-.2-2.48.85-3.31,3.3-3.29,11.38.09,22.75,0,34.13.05,5.48.02,10.97-.31,16.42.61,18.84,3.2,28.67,16.71,26.89,35.39-1.14,11.9-7.22,20.23-17.92,25.31-1.3.62-1.99,1.13-.95,2.63,4.32,6.21,8.56,12.47,13.39,18.47-.68-2.41-1.29-4.85-2.07-7.23-.57-1.72-.41-3.26.3-4.91,9.66-22.56,19.32-45.11,28.86-67.72,1.01-2.4,2.31-3.33,4.91-3.22,4.68.19,9.38.1,14.07.03,1.78-.03,2.91.48,3.72,2.24,8.52,18.37,17.17,36.68,25.69,55.05,3.22,6.94,6.46,13.83,13.59,17.69,10.59,5.72,20.91,4.66,30.9-1.58,2.02-1.26,3.92-2.77,5.67-4.39,1.47-1.36,2.46-1.56,3.94.02,3.35,3.56,6.83,7,10.37,10.38,1.51,1.44,1.44,2.4,0,3.9-8.98,9.31-19.78,14.41-32.76,15.4-16.79,1.28-31.06-3.62-42.61-16.01-5.28-5.67-8.11-12.71-10.99-19.75-4.54-11.08-9.28-22.07-13.94-33.1-.34-.81-.77-1.59-1.39-2.86ZM54.3,35.11c0,3.59.04,7.17-.02,10.76-.03,1.7.51,2.63,2.38,2.57,7.55-.25,15.13.49,22.67-.56,7.26-1.01,11.82-5.95,11.82-13.03,0-7.21-4.37-12.51-11.68-13-7.83-.52-15.7-.29-23.56-.39-1.64-.02-1.6,1.19-1.61,2.29-.02,3.78,0,7.57-.01,11.35ZM183.75,41.29c3.69-13.31,15.17-22.5,29.76-20.91,7.63.83,13.78,4.36,19.4,9.17,1.27,1.09,2.14,1.53,3.42,0,3.51-4.21,7.1-8.36,10.74-12.46,1.31-1.47,1.11-2.53-.25-3.77-2.37-2.16-4.88-4.13-7.6-5.8C227.23.19,214.17-1.25,200.59.93c-10.91,1.74-20.05,6.93-27.69,14.88-1.75,1.82-2.11,3.48-.9,5.84,2.36,4.61,4.35,9.41,6.61,14.08,1.24,2.57,2.2,5.31,4.07,7.73.97-.76.89-1.51,1.07-2.16ZM26.1,5.37c-.03-3.64-.17-3.76-3.39-1.87-6.09,3.58-11.99,7.51-18.23,10.8C.86,16.21-.17,18.72.24,22.46c.31,2.81.71,3.19,3.31,2,5.79-2.65,11.46-5.6,17.37-7.94,4.13-1.64,6.36-3.85,5.18-7.73,0-1.63,0-2.52,0-3.42ZM26.1,88.2c.06-1.46-.46-2.44-1.89-3.02-7.21-2.9-14.39-5.84-21.59-8.76-.73-.3-1.48-.7-2.09.26-1.38,2.16.1,7.96,2.36,9.2,5.86,3.2,11.71,6.38,17.57,9.59,6.65,3.64,5.57,3.07,5.63-3.37,0-1.29-.04-2.59.01-3.88ZM26.1,25.29c.08-2.04-.87-2.39-2.61-1.77-7.03,2.49-14.07,4.97-21.12,7.4-1.44.5-2.1,1.38-2.08,2.87.01,1.29.01,2.59,0,3.88-.02,1.92.68,2.69,2.75,2.22,5.73-1.28,11.49-2.41,17.23-3.6,6.66-1.38,5.74-.36,5.83-6.44,0-1.97-.04-3.27,0-4.56ZM17.98,56.03c1.99,0,3.99-.07,5.98.03,1.37.07,2.12-.35,2.12-1.79,0-2.79,0-5.59,0-8.38,0-1.54-.8-2.1-2.31-1.94-6.05.62-12.11,1.09-18.14,1.82C.05,46.44-.18,46.93.27,52.51c.15,1.84.91,2.68,2.77,2.74,4.98.18,9.96.44,14.94.66,0,.04,0,.08,0,.12ZM26.1,69.18q0-4.37-4.33-5.01c-6.19-.92-12.38-1.84-18.56-2.78-.79-.12-1.79-.52-2.25.19-1.31,1.96-.56,4.24-.61,6.38-.04,1.43.9,2.02,2.19,2.4,5.92,1.71,11.81,3.52,17.73,5.24,6.85,1.99,5.73,2.05,5.84-4.33,0-.7,0-1.39,0-2.09Z"/>
  <path class="cls-2" d="M426.86,99.83c-3.78.04-6.77-2.83-6.74-6.47.03-3.52,2.91-6.32,6.55-6.36,3.77-.04,6.77,2.84,6.74,6.47-.03,3.52-2.92,6.33-6.55,6.36Z"/>
  <path class="cls-1" d="M389.64,99.83c-3.75-.03-6.41-2.66-6.43-6.36-.02-3.84,2.72-6.52,6.61-6.47,3.57.04,6.58,2.94,6.62,6.36.04,3.52-3.09,6.51-6.8,6.48Z"/>
  <path class="cls-2" d="M408.4,87c3.62.07,6.48,2.9,6.48,6.42,0,3.62-3.01,6.47-6.79,6.41-3.88-.06-6.47-2.81-6.33-6.72.13-3.7,2.83-6.18,6.64-6.11Z"/>
  <path class="cls-2" d="M445.26,87c3.8-.02,6.44,2.51,6.52,6.24.08,3.89-2.56,6.59-6.46,6.6-3.66,0-6.55-2.7-6.66-6.24-.11-3.63,2.83-6.58,6.6-6.6Z"/>
  <path class="cls-1" d="M470.33,93.48c-.03,3.7-2.68,6.33-6.44,6.36-3.71.03-6.84-2.96-6.8-6.48.04-3.54,3.19-6.44,6.92-6.35,3.73.08,6.34,2.76,6.31,6.48Z"/>
  <path class="cls-1" d="M371.26,87.01c3.55,0,6.6,2.94,6.63,6.38.03,3.42-3.03,6.42-6.57,6.44-3.87.02-6.72-2.77-6.66-6.53.06-3.62,2.85-6.28,6.6-6.29Z"/>
  <path class="cls-1" d="M488.89,93.42c0,3.63-2.75,6.35-6.49,6.41-3.56.06-6.64-2.81-6.74-6.27-.1-3.54,3.08-6.62,6.75-6.55,3.74.07,6.48,2.79,6.47,6.42Z"/>
  <path class="cls-2" d="M434.02,32.64c.32-2.17-.1-4.38,3.04-4.36,4.25.03,4.55.12,4.55,4.46,0,11.46.03,22.92-.03,34.38,0,1.9.88,4.41-2.62,4.54-4.07.15-4.41,0-5.06-4.47-5.99,5.42-12.73,7.02-20.23,4.63-4.61-1.47-8.3-4.17-10.97-8.29-6.08-9.38-4.85-23.11,2.81-30.68,7.57-7.47,17.2-7.62,28.49-.2ZM434.23,50.96c.02-3.32-.35-5.59-1.17-7.74-2.01-5.28-5.74-8.61-11.46-9.18-5.04-.5-9.38,1.27-12.13,5.56-4.1,6.4-4.27,13.21-.5,19.81,3.6,6.3,11.27,8.32,17.66,4.85,5.64-3.06,7.24-8.38,7.6-13.3ZM452.7,58.21c5.03,15.31,24.51,19.81,35.69,8.22.72-.75,1.85-1.4,1.32-2.75-.93-2.33-4.95-3.28-6.79-1.63-4.8,4.28-11.23,5.09-16.65,2.09-5.35-2.96-8.34-10.03-7.15-17.17.96-5.79,3.67-10.42,9.52-12.34,5.66-1.86,10.38-.15,14.09,4.48,2.19,2.73,3.41-.2,4.91-.99,1.75-.92,1.59-2.17.38-3.64-5.28-6.45-12.08-8.59-20.07-6.96-10.04,2.05-16.4,10.88-16.39,22.91-.13,2.35.25,5.1,1.14,7.78ZM376.8,31.25c.1-3.02-1.96-2.9-4.06-2.94-2.13-.03-3.74.25-3.74,2.97.04,12.46.01,24.91.03,37.37,0,.99-.05,2.19,1.05,2.6,1.81.67,3.8.73,5.55.02,1.58-.64,1.13-2.39,1.15-3.73.06-6.38-.11-12.76.12-19.13.33-9.39,7.03-14.91,16.4-13.76.77.09,1.33.05,1.76-.68,1.76-3.01-.16-6.57-3.58-6.87-6.12-.52-10.47,2.45-14.54,7.66-.08-1.75-.18-2.63-.16-3.51ZM215.11,51.87c-4.69,0-9.39.14-14.07-.05-2.71-.11-3.09,1.05-2.43,3.23,1.5,4.95,4.14,9,9.45,10.28,6.11,1.48,11.7.35,16.16-4.46,2.04-2.2,5.62-1.75,7.14.91.67,1.17-.16,1.92-.74,2.66-3.63,4.61-8.44,7.18-14.18,8.14-12.14,2.04-22.49-4.73-25.31-16.55-2.97-12.44,3.04-24.49,13.97-28.02,13.9-4.5,27.98,6.26,27.44,20.9-.08,2.15-.86,3.04-3.05,3-4.79-.09-9.58-.03-14.37-.02ZM211.23,45.7c3.58,0,7.16-.06,10.74.02,2.29.06,2.69-.86,2.11-2.93-1.55-5.51-6.17-8.91-12.31-8.87-5.85.03-11.37,4.25-12.67,9.59-.38,1.57.03,2.23,1.68,2.2,3.48-.05,6.96-.02,10.44-.01ZM244.59,28.41c-3.6.03-2.49,3.03-2.51,4.96-.09,11.47,0,22.94-.08,34.41-.02,2.75.8,4.04,3.76,3.9,3.63-.16,4.03-.35,4.06-3.86.04-6.58.04-13.17.04-19.75,0-3.06.74-5.92,2.25-8.58,2.6-4.59,7.29-6.34,13.19-4.92,4.16,1,6.41,4.2,6.65,9.48.05,1.1.04,2.19.04,3.29,0,6.98.07,13.96-.02,20.94-.03,2.67,1.18,3.47,3.66,3.39,2.25-.07,4.21,0,4.18-3.16-.09-8.48.11-16.96-.09-25.43-.15-6.6-3-11.89-9.34-14.42-6.63-2.64-13.09-2.42-18.67,2.81-.41.38-.72,1.01-1.46.85-1.21-4.76-.86-3.95-5.66-3.91ZM326.56,31.63c.18-3.84-2.54-3.23-4.92-3.31-2.79-.09-2.94,1.7-2.94,3.76.02,11.87,0,23.74.02,35.61,0,3.63.37,3.81,3.93,3.98,2.84.14,3.94-.91,3.89-3.78-.11-6.58,0-13.16,0-19.75,0-3.17.77-6.12,2.36-8.85,2.58-4.41,7.21-6.1,13-4.74,4.19.98,6.47,4.16,6.73,9.41.04.9.04,1.79.05,2.69,0,7.28.07,14.56-.01,21.84-.03,2.86,1.6,3.19,3.87,3.17,2.2-.02,3.98-.15,3.95-3.08-.07-8.58.21-17.16-.11-25.73-.36-9.56-6.96-15.53-16.5-15.74-5.1-.11-9.25,1.82-12.8,5.54-.27-.53-.52-.78-.51-1.02ZM303.28,31.88c.07-2.79-1-3.65-3.68-3.61-2.52.04-3.83.53-3.8,3.48.13,12.16.13,24.32,0,36.48-.03,2.98,1.34,3.41,3.82,3.46,2.71.06,3.73-.87,3.66-3.63-.15-5.98-.05-11.96-.05-17.94,0-6.08-.11-12.16.05-18.24ZM299.44,19.65c3.26.03,5.7-2.44,5.62-5.67-.07-3.09-2.48-5.38-5.64-5.34-3.24.04-5.39,2.24-5.38,5.51.01,3.27,2.18,5.48,5.4,5.51Z"/>
  <path class="cls-1" d="M438.96,18.92v4.01h7.25v15.85h3.98c.02-.13,1.52-9.7,9-14.1,1.98-1.16,4.24-1.75,6.53-1.75h2.37v-4.01h-29.13ZM450.21,29.41v-6.48h5.72c-2.22,1.63-4.28,3.96-5.72,6.48ZM450.21,16.59h-4V1.53h4v15.06Z"/>
</svg>