<?xml version="1.0" encoding="UTF-8"?>
<svg id="Layer_4" data-name="Layer 4" xmlns="http://www.w3.org/2000/svg" xmlns:xlink="http://www.w3.org/1999/xlink" viewBox="0 0 2820.71 1080">
  <defs>
    <style>
      .cls-1 {
        fill: url(#linear-gradient-2);
      }

      .cls-2 {
        fill: #fff;
      }

      .cls-3 {
        fill: url(#linear-gradient-6);
      }

      .cls-4 {
        fill: url(#linear-gradient-5);
      }

      .cls-5 {
        fill: url(#linear-gradient-7);
      }

      .cls-6 {
        fill: url(#linear-gradient-9);
      }

      .cls-7 {
        fill: url(#linear-gradient-3);
      }

      .cls-8 {
        fill: url(#linear-gradient);
      }

      .cls-9 {
        fill: url(#linear-gradient-4);
      }

      .cls-10 {
        fill: #282944;
      }

      .cls-11 {
        fill: url(#linear-gradient-8);
      }
    </style>
    <linearGradient id="linear-gradient" x1="533.94" y1="180.62" x2="617.91" y2="488.88" gradientUnits="userSpaceOnUse">
      <stop offset="0" stop-color="#282944"/>
      <stop offset=".25" stop-color="#5e5f73"/>
      <stop offset=".5" stop-color="#9394a2"/>
      <stop offset=".75" stop-color="#c9cad0"/>
      <stop offset="1" stop-color="#f3f5fb"/>
    </linearGradient>
    <linearGradient id="linear-gradient-2" x1="304.24" y1="262.4" x2="567.78" y2="443.01" xlink:href="#linear-gradient"/>
    <linearGradient id="linear-gradient-3" x1="186.83" y1="472.85" x2="505.68" y2="452.56" xlink:href="#linear-gradient"/>
    <linearGradient id="linear-gradient-4" x1="230.83" y1="707.56" x2="445.84" y2="471.25" xlink:href="#linear-gradient"/>
    <linearGradient id="linear-gradient-5" x1="413.67" y1="846" x2="450.37" y2="528.63" xlink:href="#linear-gradient"/>
    <linearGradient id="linear-gradient-6" x1="658.48" y1="876.15" x2="468.01" y2="593.31" xlink:href="#linear-gradient"/>
    <linearGradient id="linear-gradient-7" x1="841.23" y1="713.89" x2="533.1" y2="629.48" xlink:href="#linear-gradient"/>
    <linearGradient id="linear-gradient-8" x1="882.36" y1="475.02" x2="586.83" y2="608.36" xlink:href="#linear-gradient"/>
    <linearGradient id="linear-gradient-9" x1="762.81" y1="262.28" x2="628.21" y2="552.04" xlink:href="#linear-gradient"/>
  </defs>
  <g>
    <polygon class="cls-8" points="643.15 376.64 643.15 376.65 623.93 446.38 619.21 463.51 600.85 530.14 581.57 488.01 552.8 425.17 545.41 409.02 515.3 343.25 453.64 208.54 620.15 174.45 643.15 376.64"/>
    <polygon class="cls-1" points="581.57 488.01 539.72 468.13 477.28 438.48 461.24 430.86 395.92 399.84 262.08 336.28 367.72 203.14 515.3 343.25 545.41 409.02 552.8 425.17 581.57 488.01"/>
    <polygon class="cls-7" points="539.72 468.13 494.89 479.81 428.01 497.23 428 497.23 410.81 501.7 340.81 519.93 197.44 557.27 192.79 387.37 395.92 399.84 461.24 430.86 477.28 438.48 539.72 468.13"/>
    <polygon class="cls-9" points="494.89 479.81 468.04 517.58 428 573.91 428 573.92 427.99 573.92 417.71 588.4 375.81 647.33 375.81 647.34 375.8 647.35 289.98 768.1 177.2 640.94 340.81 519.93 410.81 501.7 428 497.23 428.01 497.23 494.89 479.81"/>
    <polygon class="cls-4" points="496.38 870.13 328.25 845.22 375.8 647.35 375.81 647.34 375.81 647.33 417.71 588.4 427.99 573.92 428 573.92 428 573.91 468.04 517.58 471.75 563.76 477.29 632.65 478.71 650.36 484.51 722.46 496.38 870.13"/>
    <polygon class="cls-3" points="720.08 815.62 575.27 904.6 484.51 722.46 478.71 650.36 477.29 632.65 471.75 563.76 504.28 596.75 552.8 645.96 565.28 658.62 616.06 710.12 720.08 815.62"/>
    <polygon class="cls-5" points="856.4 630.06 802.67 791.31 616.06 710.12 565.28 658.62 552.8 645.96 504.28 596.75 550.41 601.12 550.42 601.12 619.21 607.62 636.91 609.3 708.91 616.11 856.4 630.06"/>
    <polygon class="cls-11" points="904.04 558.36 708.91 616.11 636.91 609.3 619.21 607.62 550.42 601.12 588.55 574.81 645.44 535.57 660.07 525.48 719.6 484.42 841.56 400.3 904.04 558.36"/>
    <polygon class="cls-6" points="831.96 314.74 719.6 484.42 660.07 525.48 645.44 535.57 588.55 574.81 600.85 530.15 600.85 530.14 619.21 463.51 623.93 446.38 643.15 376.65 643.15 376.64 682.5 233.82 831.96 314.74"/>
    <g>
      <circle class="cls-2" cx="533.34" cy="174.07" r="86.81"/>
      <circle class="cls-2" cx="300.97" cy="258.64" r="86.81" transform="translate(-95.84 253.97) rotate(-40)"/>
      <circle class="cls-2" cx="177.33" cy="472.8" r="86.81" transform="translate(-319.08 565.33) rotate(-80)"/>
      <circle class="cls-2" cx="220.27" cy="716.32" r="86.82" transform="translate(-328.65 206.1) rotate(-30)"/>
      <circle class="cls-2" cx="409.7" cy="875.27" r="86.82" transform="translate(-552.91 960.91) rotate(-70)"/>
      <circle class="cls-2" cx="656.98" cy="875.27" r="86.81" transform="translate(-259.74 277.49) rotate(-20)"/>
      <circle class="cls-2" cx="846.41" cy="716.32" r="86.81" transform="translate(-197.15 1091.18) rotate(-60)"/>
      <circle class="cls-2" cx="889.35" cy="472.8" r="86.82" transform="translate(-68.59 161.62) rotate(-10)"/>
      <circle class="cls-2" cx="765.71" cy="258.64" r="86.82" transform="translate(75.39 678.96) rotate(-50)"/>
    </g>
    <path class="cls-10" d="m367.48,202.84c36.95,34.94,111.13,105.24,147.99,140.24.12.07,66.03,144.84,66.11,144.93,0,0-66.62-144.91-66.43-144.59-36.82-34.97-110.93-105.52-147.67-140.58h0Z"/>
    <path class="cls-10" d="m620.16,174.07c5.85,50.51,17.5,152.05,23.23,202.55.05.13-42.54,153.4-42.53,153.53,0,0,42.13-153.84,42.07-153.47-5.73-50.46-17.15-152.13-22.77-202.6h0Z"/>
    <path class="cls-10" d="m832.22,314.45c-27.99,42.45-84.34,127.73-112.42,170.1-.04.13-131.17,90.16-131.24,90.26,0,0,131.13-90.76,130.86-90.52,28.05-42.34,84.66-127.57,112.8-169.85h0Z"/>
    <path class="cls-10" d="m904.43,558.29c-48.73,14.53-146.71,43.63-195.45,58.04-.12.07-158.44-15.24-158.56-15.21,0,0,158.79,14.76,158.43,14.77,48.7-14.41,146.85-43.31,195.58-57.6h0Z"/>
    <path class="cls-10" d="m803.01,791.51c-46.67-20.19-140.43-60.88-187.04-81.17-.14-.02-111.58-113.53-111.69-113.58,0,0,112.16,113.39,111.87,113.16,46.57,20.27,140.34,61.22,186.85,81.6h0Z"/>
    <path class="cls-10" d="m575.41,904.97c-22.77-45.47-68.44-136.9-91.1-182.4-.09-.1-12.5-158.69-12.55-158.8,0,0,13.04,158.96,12.97,158.6,22.64,45.46,68.15,137.1,90.69,182.61h0Z"/>
    <path class="cls-10" d="m328.12,845.58c11.79-49.47,35.57-148.88,47.47-198.3,0-.14,92.42-129.58,92.45-129.7,0,0-92.18,130.12-92.01,129.8-11.88,49.38-35.93,148.84-47.91,198.2h0Z"/>
    <path class="cls-10" d="m176.86,641.14c40.82-30.32,122.94-91.18,163.81-121.39.09-.11,154.12-39.86,154.22-39.94,0,0-154.28,40.44-153.94,40.31-40.84,30.19-123.18,90.93-164.09,121.02h0Z"/>
    <path class="cls-10" d="m192.41,387.3c50.77,3.02,152.79,9.18,203.53,12.31.14-.03,143.66,68.51,143.79,68.52,0,0-144.16-68.18-143.81-68.06-50.69-3.12-152.82-9.53-203.5-12.77h0Z"/>
  </g>
  <g>
    <path class="cls-2" d="m1232.83,826.46c-1.61,0-2.81.31-3.61.93-.81.62-1.64,1.61-2.5,2.97l-50.07,95.72-50.42-95.72c-.74-1.36-1.55-2.35-2.41-2.97-.87-.62-2.1-.93-3.71-.93-1.48,0-2.69.46-3.61,1.39s-1.39,2.32-1.39,4.17v121.8c0,1.73.46,3.09,1.39,4.08.93.99,2.19,1.48,3.8,1.48,1.73,0,3.03-.5,3.89-1.48.86-.99,1.3-2.35,1.3-4.08v-104.36l45.79,86.01c.62,1.11,1.33,2.01,2.13,2.69.8.68,1.95,1.02,3.43,1.02,1.36,0,2.41-.31,3.15-.93.74-.62,1.42-1.54,2.04-2.78l45.23-85.74v104.1c0,1.73.46,3.09,1.39,4.08.93.99,2.25,1.48,3.99,1.48s3.03-.5,3.89-1.48c.86-.99,1.3-2.35,1.3-4.08v-121.8c0-1.85-.46-3.24-1.39-4.17-.93-.93-2.13-1.39-3.61-1.39Z"/>
    <path class="cls-2" d="m1323.2,870.39c-4.76-2.47-10.78-3.71-18.08-3.71-5.07,0-10.29.71-15.66,2.13-5.38,1.42-10.66,3.55-15.85,6.4-1.24.62-2.1,1.42-2.6,2.41-.49.99-.65,2.01-.46,3.06.19,1.05.56,1.95,1.11,2.69.56.74,1.36,1.24,2.41,1.48,1.05.25,2.26,0,3.61-.74,4.94-2.72,9.61-4.7,14-5.93,4.39-1.23,8.93-1.85,13.63-1.85,7.29,0,12.61,1.89,15.94,5.65,3.34,3.77,5,9.8,5,18.07v6.67h-5.75c-13.84,0-24.72.77-32.63,2.32-7.91,1.55-13.53,4.23-16.87,8.06-3.34,3.83-5.01,9.08-5.01,15.76,0,5.07,1.39,9.64,4.17,13.72,2.78,4.08,6.55,7.29,11.31,9.64,4.76,2.35,10.16,3.52,16.22,3.52,5.19,0,9.89-.93,14.09-2.78,4.2-1.85,7.72-4.51,10.57-7.97,1.66-2.01,3.01-4.27,4.08-6.75v11.38c0,1.85.49,3.28,1.48,4.26.99.99,2.35,1.48,4.08,1.48s3.03-.5,3.89-1.48c.86-.99,1.3-2.41,1.3-4.26v-53.02c0-7.79-1.14-14.15-3.43-19.09-2.29-4.94-5.81-8.65-10.57-11.12Zm-.46,66c-2.35,4.45-5.53,7.94-9.55,10.47-4.02,2.53-8.68,3.8-14,3.8-6.55,0-11.74-1.73-15.57-5.19-3.83-3.46-5.75-7.97-5.75-13.53,0-4.45,1.24-7.91,3.71-10.38,2.47-2.47,6.83-4.17,13.07-5.1,6.24-.93,14.92-1.39,26.05-1.39h5.56v6.12c0,5.69-1.18,10.75-3.52,15.2Z"/>
    <path class="cls-2" d="m1412.28,867.43c-.99-.74-2.23-1.05-3.71-.93-8.04.12-14.92,2.16-20.67,6.12-4.41,3.03-7.77,7.06-10.1,12.05v-11.68c0-1.98-.46-3.46-1.39-4.45-.93-.99-2.26-1.48-3.99-1.48-1.85,0-3.28.49-4.26,1.48-.99.99-1.48,2.47-1.48,4.45v80.64c0,1.85.49,3.28,1.48,4.26.99.99,2.41,1.48,4.26,1.48,1.98,0,3.43-.5,4.36-1.48.93-.99,1.39-2.41,1.39-4.26v-48.02c0-8.4,2.41-15.08,7.23-20.02,4.82-4.94,11.62-7.85,20.39-8.71l2.6-.18c1.97-.25,3.4-.84,4.26-1.76.86-.93,1.23-2.25,1.11-3.99,0-1.6-.49-2.78-1.48-3.52Z"/>
    <path class="cls-2" d="m1453.74,911.78l40.11-36.57c1.23-1.36,1.88-2.63,1.95-3.8.06-1.17-.34-2.19-1.21-3.06-.87-.86-2.04-1.3-3.52-1.3-1.73,0-3.12.37-4.17,1.11-1.05.74-2.26,1.73-3.61,2.97l-41.53,38h-.37v-76.94c0-1.98-.49-3.43-1.48-4.36-.99-.93-2.35-1.39-4.08-1.39-1.85,0-3.28.46-4.26,1.39-.99.93-1.48,2.38-1.48,4.36v121.43c0,1.85.49,3.28,1.48,4.26.99.99,2.41,1.48,4.26,1.48,3.71,0,5.56-1.92,5.56-5.75v-38.56h.37l45.42,40.04c1.61,1.48,2.97,2.57,4.08,3.24,1.11.68,2.47,1.02,4.08,1.02,1.48,0,2.66-.43,3.52-1.3.86-.86,1.27-1.95,1.21-3.24-.06-1.3-.83-2.63-2.32-3.99l-44-39.07Z"/>
    <path class="cls-2" d="m1581.81,878.46c-3.28-3.77-7.23-6.67-11.86-8.71-4.63-2.04-9.98-3.06-16.03-3.06-8.28,0-15.61,1.98-21.97,5.93-6.37,3.96-11.34,9.43-14.92,16.41-3.58,6.98-5.38,15.17-5.38,24.56s1.79,17.74,5.38,24.66c3.58,6.92,8.71,12.24,15.39,15.94,6.67,3.71,14.65,5.56,23.92,5.56,5.56,0,11.12-.83,16.69-2.5,5.56-1.67,10.32-4.11,14.27-7.32,1.24-.86,2.07-1.82,2.5-2.87.43-1.05.49-2.04.18-2.97-.31-.93-.86-1.7-1.67-2.32-.8-.62-1.79-.93-2.97-.93s-2.38.43-3.61,1.3c-4.08,2.97-8.25,5.07-12.51,6.3-4.26,1.24-8.68,1.85-13.25,1.85-10.51,0-18.67-3.18-24.47-9.55-5.44-5.95-8.29-14.35-8.64-25.12h63.89c1.61,0,2.87-.43,3.8-1.3.93-.86,1.39-2.16,1.39-3.89,0-6.8-.87-12.88-2.6-18.26-1.73-5.38-4.24-9.95-7.51-13.72Zm-55.52,15.02c2.35-5.5,5.87-9.83,10.57-12.98,4.7-3.15,10.44-4.73,17.24-4.73,6.05,0,11.15,1.36,15.29,4.08,4.14,2.72,7.26,6.58,9.36,11.59,1.86,4.43,2.89,9.72,3.1,15.85h-58.87c.44-5.07,1.54-9.68,3.3-13.81Z"/>
    <path class="cls-2" d="m1660.51,948.26c-1.11,0-2.5.28-4.17.83-1.67.56-3.74.83-6.21.83-7.17,0-12.3-1.98-15.39-5.93-3.09-3.95-4.63-9.7-4.63-17.24v-49.31h25.03c1.73,0,3.03-.4,3.89-1.2.86-.8,1.3-1.95,1.3-3.43,0-1.36-.43-2.44-1.3-3.24-.87-.8-2.17-1.2-3.89-1.2h-25.03v-23.17c0-1.98-.49-3.43-1.48-4.36-.99-.93-2.35-1.39-4.08-1.39-1.85,0-3.28.46-4.26,1.39-.99.93-1.48,2.38-1.48,4.36v23.17h-13.72c-1.61,0-2.91.4-3.89,1.2-.99.81-1.48,1.89-1.48,3.24,0,1.48.49,2.63,1.48,3.43.99.81,2.29,1.2,3.89,1.2h13.72v50.8c0,6.8,1.11,12.51,3.34,17.15,2.23,4.63,5.56,8.19,10.01,10.66,4.45,2.47,10.01,3.71,16.69,3.71,1.97,0,4.14-.22,6.49-.65,2.35-.43,4.2-.89,5.56-1.39,1.11-.25,1.88-.86,2.32-1.85.43-.99.65-1.98.65-2.97,0-1.61-.34-2.78-1.02-3.52-.68-.74-1.45-1.11-2.32-1.11Z"/>
    <path class="cls-2" d="m1690.08,885.96c2.66-3.09,5.9-5.44,9.73-7.04,3.83-1.61,8.28-2.41,13.35-2.41,3.34,0,6.77.53,10.29,1.58,3.52,1.05,7.01,3,10.48,5.84,1.11.99,2.19,1.45,3.24,1.39,1.05-.06,1.95-.37,2.69-.93.74-.56,1.3-1.3,1.67-2.22.37-.93.43-1.88.19-2.87-.25-.99-.8-1.85-1.67-2.6-3.96-3.58-8.34-6.15-13.16-7.69-4.82-1.54-9.52-2.32-14.09-2.32-6.55,0-12.45,1.08-17.71,3.24-5.25,2.16-9.7,5.22-13.35,9.18-3.65,3.96-6.43,8.75-8.34,14.37-1.92,5.62-2.87,12.02-2.87,19.19,0,9.39,1.7,17.64,5.1,24.75,3.4,7.11,8.25,12.61,14.55,16.5,6.3,3.89,13.84,5.84,22.62,5.84,4.57,0,9.27-.74,14.09-2.22,4.82-1.48,9.15-4.02,12.98-7.6.86-.74,1.42-1.6,1.67-2.6.25-.99.22-1.95-.09-2.87-.31-.93-.83-1.67-1.58-2.22-.74-.56-1.64-.86-2.69-.93-1.05-.06-2.13.4-3.24,1.39-3.46,2.84-6.95,4.79-10.48,5.84-3.52,1.05-6.95,1.58-10.29,1.58-10.01,0-17.7-3.3-23.08-9.92-5.38-6.61-8.06-15.73-8.06-27.35,0-5.81.68-10.97,2.04-15.48,1.36-4.51,3.37-8.31,6.03-11.4Z"/>
    <path class="cls-2" d="m1813.55,870.39c-4.76-2.47-10.78-3.71-18.07-3.71-5.07,0-10.29.71-15.67,2.13-5.38,1.42-10.66,3.55-15.85,6.4-1.24.62-2.1,1.42-2.6,2.41-.49.99-.65,2.01-.46,3.06.19,1.05.56,1.95,1.11,2.69.56.74,1.36,1.24,2.41,1.48,1.05.25,2.25,0,3.61-.74,4.94-2.72,9.61-4.7,14-5.93,4.38-1.23,8.93-1.85,13.63-1.85,7.29,0,12.61,1.89,15.94,5.65,3.34,3.77,5.01,9.8,5.01,18.07v6.67h-5.75c-13.84,0-24.72.77-32.63,2.32-7.91,1.55-13.53,4.23-16.87,8.06-3.34,3.83-5,9.08-5,15.76,0,5.07,1.39,9.64,4.17,13.72,2.78,4.08,6.55,7.29,11.31,9.64,4.76,2.35,10.16,3.52,16.22,3.52,5.19,0,9.89-.93,14.09-2.78,4.2-1.85,7.72-4.51,10.57-7.97,1.66-2.02,3.01-4.27,4.08-6.75v11.38c0,1.85.49,3.28,1.48,4.26.99.99,2.35,1.48,4.08,1.48s3.03-.5,3.89-1.48c.86-.99,1.3-2.41,1.3-4.26v-53.02c0-7.79-1.15-14.15-3.43-19.09-2.29-4.94-5.81-8.65-10.57-11.12Zm-.46,66c-2.35,4.45-5.53,7.94-9.55,10.47-4.02,2.53-8.68,3.8-14,3.8-6.55,0-11.74-1.73-15.57-5.19-3.83-3.46-5.75-7.97-5.75-13.53,0-4.45,1.23-7.91,3.71-10.38,2.47-2.47,6.83-4.17,13.07-5.1,6.24-.93,14.92-1.39,26.05-1.39h5.56v6.12c0,5.69-1.18,10.75-3.52,15.2Z"/>
    <path class="cls-2" d="m1897.06,910.99l-16.13-3.71c-5.19-1.23-8.99-3.03-11.4-5.38-2.41-2.35-3.61-5.44-3.61-9.27,0-5.07,1.95-9.08,5.84-12.05,3.89-2.97,9.42-4.45,16.59-4.45,4.08,0,8.09.65,12.05,1.95,3.95,1.3,7.72,3.31,11.31,6.02,1.11.74,2.16,1.11,3.15,1.11s1.85-.31,2.6-.93c.74-.62,1.27-1.39,1.58-2.32.31-.93.31-1.88,0-2.87-.31-.99-.96-1.85-1.95-2.6-3.71-3.34-8.04-5.81-12.98-7.42-4.94-1.6-10.14-2.41-15.57-2.41-6.67,0-12.58,1.08-17.71,3.24-5.13,2.16-9.08,5.22-11.86,9.18-2.78,3.96-4.17,8.59-4.17,13.9,0,6.18,1.85,11.22,5.56,15.11,3.71,3.89,9.46,6.71,17.24,8.43l16.13,3.71c5.68,1.36,9.79,3.12,12.33,5.28,2.53,2.16,3.8,5.22,3.8,9.18,0,4.82-1.98,8.65-5.93,11.49-3.96,2.84-9.7,4.26-17.24,4.26-4.57,0-9.15-.62-13.72-1.85-4.57-1.23-9.27-3.46-14.09-6.67-1.11-.74-2.16-1.05-3.15-.93-.99.12-1.83.53-2.5,1.2-.68.68-1.11,1.51-1.3,2.5-.19.99-.12,1.95.19,2.87.31.93.95,1.7,1.95,2.32,4.94,3.59,10.16,6.12,15.67,7.6,5.5,1.48,11.03,2.22,16.59,2.22,10.63,0,19.06-2.32,25.31-6.95,6.24-4.63,9.36-10.91,9.36-18.82,0-6.18-1.98-11.09-5.93-14.74-3.96-3.64-9.95-6.4-17.98-8.25Z"/>
    <path class="cls-2" d="m1990.31,948.26c-1.11,0-2.5.28-4.17.83-1.67.56-3.74.83-6.21.83-7.17,0-12.3-1.98-15.39-5.93-3.09-3.95-4.63-9.7-4.63-17.24v-49.31h25.03c1.73,0,3.03-.4,3.89-1.2.86-.8,1.3-1.95,1.3-3.43,0-1.36-.43-2.44-1.3-3.24-.87-.8-2.17-1.2-3.89-1.2h-25.03v-23.17c0-1.98-.49-3.43-1.48-4.36-.99-.93-2.35-1.39-4.08-1.39-1.85,0-3.28.46-4.26,1.39-.99.93-1.48,2.38-1.48,4.36v23.17h-13.72c-1.61,0-2.91.4-3.89,1.2-.99.81-1.48,1.89-1.48,3.24,0,1.48.49,2.63,1.48,3.43.99.81,2.29,1.2,3.89,1.2h13.72v50.8c0,6.8,1.11,12.51,3.34,17.15,2.23,4.63,5.56,8.19,10.01,10.66,4.45,2.47,10.01,3.71,16.69,3.71,1.97,0,4.14-.22,6.49-.65,2.35-.43,4.2-.89,5.56-1.39,1.11-.25,1.88-.86,2.32-1.85.43-.99.65-1.98.65-2.97,0-1.61-.34-2.78-1.02-3.52-.68-.74-1.45-1.11-2.32-1.11Z"/>
    <path class="cls-2" d="m2131.58,914.51c-2.84-5.56-6.02-9.58-9.55-12.05-1.4-.98-2.89-1.76-4.47-2.35,3.91-.71,7.51-1.78,10.78-3.21,6.49-2.84,11.4-7.01,14.74-12.51,3.34-5.5,5.01-12.08,5.01-19.74,0-11.86-3.71-21.01-11.12-27.44-7.42-6.42-18.04-9.64-31.89-9.64h-43.57c-1.73,0-3.12.49-4.17,1.48-1.05.99-1.58,2.47-1.58,4.45v119.95c0,1.85.49,3.31,1.48,4.36.99,1.05,2.35,1.58,4.08,1.58,1.97,0,3.43-.53,4.36-1.58.93-1.05,1.39-2.5,1.39-4.36v-51.72h26.51c6.67,0,11.99.96,15.94,2.87,3.95,1.92,7.54,5.84,10.75,11.77l20.77,38.75c.74,1.36,1.64,2.41,2.69,3.15,1.05.74,2.38,1.11,3.98,1.11,1.36,0,2.47-.4,3.34-1.21.86-.8,1.33-1.85,1.39-3.15.06-1.3-.34-2.62-1.2-3.99l-19.65-36.52Zm-64.51-22.43v-54.69h36.52c11,0,19.25,2.32,24.75,6.95,5.5,4.63,8.25,11.4,8.25,20.3s-2.75,15.85-8.25,20.49c-5.5,4.63-13.75,6.95-24.75,6.95h-36.52Z"/>
    <path class="cls-2" d="m2238.64,878.46c-3.28-3.77-7.23-6.67-11.86-8.71-4.63-2.04-9.98-3.06-16.03-3.06-8.28,0-15.61,1.98-21.97,5.93-6.37,3.96-11.34,9.43-14.92,16.41-3.58,6.98-5.38,15.17-5.38,24.56s1.79,17.74,5.38,24.66c3.58,6.92,8.71,12.24,15.39,15.94,6.67,3.71,14.65,5.56,23.92,5.56,5.56,0,11.12-.83,16.69-2.5,5.56-1.67,10.32-4.11,14.27-7.32,1.24-.86,2.07-1.82,2.5-2.87.43-1.05.49-2.04.18-2.97-.31-.93-.86-1.7-1.67-2.32-.8-.62-1.79-.93-2.97-.93s-2.38.43-3.61,1.3c-4.08,2.97-8.25,5.07-12.51,6.3-4.26,1.24-8.68,1.85-13.25,1.85-10.51,0-18.67-3.18-24.47-9.55-5.44-5.95-8.29-14.35-8.64-25.12h63.89c1.61,0,2.87-.43,3.8-1.3.93-.86,1.39-2.16,1.39-3.89,0-6.8-.87-12.88-2.6-18.26-1.73-5.38-4.24-9.95-7.51-13.72Zm-55.52,15.02c2.35-5.5,5.87-9.83,10.57-12.98,4.7-3.15,10.44-4.73,17.24-4.73,6.05,0,11.15,1.36,15.29,4.08,4.14,2.72,7.26,6.58,9.36,11.59,1.86,4.43,2.89,9.72,3.1,15.85h-58.87c.44-5.07,1.54-9.68,3.3-13.81Z"/>
    <path class="cls-2" d="m2335.6,872.43c-6-3.83-13.01-5.75-21.04-5.75s-15.57,2.16-21.51,6.49c-4.39,3.2-7.72,7.25-10.01,12.14v-12.32c0-1.98-.49-3.46-1.48-4.45-.99-.99-2.35-1.48-4.08-1.48-1.85,0-3.28.49-4.26,1.48-.99.99-1.48,2.47-1.48,4.45v114.01c0,1.85.49,3.27,1.48,4.26.99.99,2.41,1.48,4.26,1.48,1.73,0,3.09-.5,4.08-1.48.99-.99,1.48-2.41,1.48-4.26v-45.67c2.29,4.75,5.63,8.73,10.01,11.93,5.93,4.33,13.1,6.49,21.51,6.49s15.2-1.88,21.13-5.65c5.93-3.77,10.53-9.14,13.81-16.13,3.27-6.98,4.91-15.23,4.91-24.75s-1.64-17.73-4.91-24.66c-3.28-6.92-7.91-12.3-13.9-16.13Zm3.61,60.81c-2.47,5.56-5.97,9.8-10.48,12.7-4.51,2.91-9.8,4.36-15.85,4.36-9.15,0-16.44-3.21-21.88-9.64-5.44-6.43-8.16-15.57-8.16-27.44,0-7.79,1.24-14.43,3.71-19.93,2.47-5.5,5.96-9.7,10.48-12.61,4.51-2.9,9.79-4.36,15.85-4.36,9.15,0,16.44,3.22,21.88,9.64,5.44,6.43,8.16,15.51,8.16,27.25,0,7.79-1.24,14.46-3.71,20.02Z"/>
    <path class="cls-2" d="m2436.17,872.43c-6.18-3.83-13.53-5.75-22.06-5.75-6.18,0-11.84,1.08-16.96,3.24-5.13,2.16-9.52,5.32-13.16,9.46-3.65,4.14-6.43,9.05-8.34,14.74-1.92,5.69-2.87,12.05-2.87,19.1,0,9.52,1.7,17.74,5.1,24.66,3.4,6.92,8.18,12.3,14.37,16.13,6.18,3.83,13.47,5.75,21.88,5.75,6.42,0,12.17-1.08,17.24-3.24,5.07-2.16,9.42-5.28,13.07-9.36,3.64-4.08,6.42-8.96,8.34-14.65,1.91-5.68,2.87-12.11,2.87-19.28,0-9.39-1.7-17.58-5.1-24.56-3.4-6.98-8.19-12.39-14.37-16.22Zm4.36,60.81c-2.41,5.56-5.87,9.8-10.38,12.7-4.51,2.91-9.86,4.36-16.03,4.36-9.02,0-16.25-3.21-21.69-9.64-5.44-6.43-8.16-15.57-8.16-27.44,0-7.79,1.2-14.43,3.61-19.93,2.41-5.5,5.87-9.7,10.38-12.61,4.51-2.9,9.79-4.36,15.85-4.36,9.27,0,16.59,3.22,21.97,9.64,5.38,6.43,8.06,15.51,8.06,27.25,0,7.79-1.21,14.46-3.61,20.02Z"/>
    <path class="cls-2" d="m2525.34,867.43c-.99-.74-2.23-1.05-3.71-.93-8.04.12-14.92,2.16-20.67,6.12-4.41,3.03-7.77,7.06-10.1,12.05v-11.68c0-1.98-.46-3.46-1.39-4.45-.93-.99-2.26-1.48-3.99-1.48-1.85,0-3.28.49-4.26,1.48-.99.99-1.48,2.47-1.48,4.45v80.64c0,1.85.49,3.28,1.48,4.26.99.99,2.41,1.48,4.26,1.48,1.98,0,3.43-.5,4.36-1.48.93-.99,1.39-2.41,1.39-4.26v-48.02c0-8.4,2.41-15.08,7.23-20.02,4.82-4.94,11.62-7.85,20.39-8.71l2.6-.18c1.97-.25,3.4-.84,4.26-1.76.86-.93,1.23-2.25,1.11-3.99,0-1.6-.49-2.78-1.48-3.52Z"/>
    <path class="cls-2" d="m2593.56,948.26c-1.11,0-2.5.28-4.17.83-1.67.56-3.74.83-6.21.83-7.17,0-12.3-1.98-15.39-5.93-3.09-3.95-4.63-9.7-4.63-17.24v-49.31h25.03c1.73,0,3.03-.4,3.89-1.2.86-.8,1.3-1.95,1.3-3.43,0-1.36-.43-2.44-1.3-3.24-.87-.8-2.16-1.2-3.89-1.2h-25.03v-23.17c0-1.98-.49-3.43-1.48-4.36s-2.35-1.39-4.08-1.39c-1.85,0-3.28.46-4.26,1.39-.99.93-1.48,2.38-1.48,4.36v23.17h-13.72c-1.61,0-2.9.4-3.89,1.2-.99.81-1.48,1.89-1.48,3.24,0,1.48.49,2.63,1.48,3.43.99.81,2.28,1.2,3.89,1.2h13.72v50.8c0,6.8,1.11,12.51,3.34,17.15,2.22,4.63,5.56,8.19,10.01,10.66,4.45,2.47,10.01,3.71,16.68,3.71,1.98,0,4.14-.22,6.49-.65,2.35-.43,4.2-.89,5.56-1.39,1.11-.25,1.88-.86,2.32-1.85.43-.99.65-1.98.65-2.97,0-1.61-.34-2.78-1.02-3.52-.68-.74-1.45-1.11-2.32-1.11Z"/>
    <path class="cls-2" d="m2668.08,919.24c-3.96-3.64-9.95-6.4-17.98-8.25l-16.13-3.71c-5.19-1.23-8.99-3.03-11.4-5.38-2.41-2.35-3.61-5.44-3.61-9.27,0-5.07,1.95-9.08,5.84-12.05,3.89-2.97,9.42-4.45,16.59-4.45,4.08,0,8.09.65,12.05,1.95,3.95,1.3,7.72,3.31,11.31,6.02,1.11.74,2.16,1.11,3.15,1.11s1.85-.31,2.6-.93c.74-.62,1.27-1.39,1.58-2.32.31-.93.31-1.88,0-2.87-.31-.99-.96-1.85-1.95-2.6-3.71-3.34-8.03-5.81-12.98-7.42-4.94-1.6-10.13-2.41-15.57-2.41-6.67,0-12.58,1.08-17.71,3.24-5.13,2.16-9.08,5.22-11.86,9.18-2.78,3.96-4.17,8.59-4.17,13.9,0,6.18,1.85,11.22,5.56,15.11,3.71,3.89,9.46,6.71,17.24,8.43l16.13,3.71c5.68,1.36,9.79,3.12,12.33,5.28,2.53,2.16,3.8,5.22,3.8,9.18,0,4.82-1.98,8.65-5.93,11.49-3.96,2.84-9.7,4.26-17.24,4.26-4.57,0-9.15-.62-13.72-1.85-4.57-1.23-9.27-3.46-14.09-6.67-1.11-.74-2.16-1.05-3.15-.93-.99.12-1.82.53-2.5,1.2-.68.68-1.11,1.51-1.3,2.5-.19.99-.13,1.95.18,2.87s.96,1.7,1.95,2.32c4.94,3.59,10.16,6.12,15.67,7.6,5.5,1.48,11.03,2.22,16.59,2.22,10.63,0,19.06-2.32,25.3-6.95,6.24-4.63,9.36-10.91,9.36-18.82,0-6.18-1.98-11.09-5.93-14.74Z"/>
  </g>
  <g>
    <path class="cls-2" d="m1225.41,344.35c48.95,0,93.24-28.99,112.84-73.85l1.4-3.21-26.34-11.51-1.4,3.21c-15.03,34.39-48.98,56.61-86.5,56.61-46.83,0-86.25-34.11-93.26-79.98h216.35v-14.37c0-67.87-55.22-123.09-123.09-123.09s-123.09,55.22-123.09,123.09,55.22,123.09,123.09,123.09Zm-93.26-137.46c7-45.86,46.42-79.98,93.26-79.98s86.25,34.11,93.26,79.98h-186.51Z"/>
    <path class="cls-2" d="m1494.8,344.35c45.76,0,87.48-25.15,108.89-65.64l1.64-3.09-25.41-13.43-1.64,3.09c-16.41,31.04-48.39,50.33-83.47,50.33-52.02,0-94.35-42.32-94.35-94.35s42.32-94.35,94.35-94.35c35.08,0,67.06,19.28,83.47,50.33l1.64,3.09,25.41-13.43-1.63-3.09c-21.4-40.49-63.12-65.64-108.89-65.64-67.87,0-123.09,55.22-123.09,123.09s55.22,123.09,123.09,123.09Z"/>
    <path class="cls-2" d="m1764.19,344.35c67.87,0,123.09-55.22,123.09-123.09s-55.22-123.09-123.09-123.09-123.09,55.22-123.09,123.09,55.22,123.09,123.09,123.09Zm-94.35-123.09c0-52.02,42.32-94.35,94.35-94.35s94.35,42.32,94.35,94.35-42.32,94.35-94.35,94.35-94.35-42.32-94.35-94.35Z"/>
    <path class="cls-2" d="m2302.74,406.69c-67.87,0-123.09,55.22-123.09,123.09s55.22,123.09,123.09,123.09c48.95,0,93.24-28.99,112.84-73.85l1.4-3.21-26.34-11.51-1.4,3.21c-15.03,34.39-48.98,56.61-86.5,56.61-46.83,0-86.25-34.11-93.26-79.98h216.35v-14.37c0-67.87-55.22-123.09-123.09-123.09Zm-93.26,108.72c7-45.86,46.42-79.98,93.26-79.98s86.25,34.11,93.26,79.98h-186.51Z"/>
    <path class="cls-2" d="m1591.11,421.06c0,52.02-42.32,94.35-94.35,94.35s-94.35-42.32-94.35-94.35v-3.5h-28.74v3.5c0,30.88,11.53,60.42,32.46,83.2,20.07,21.84,47.05,35.63,76.26,39.05v98.69h28.74v-98.69c29.21-3.41,56.19-17.2,76.26-39.05,20.93-22.78,32.46-52.33,32.46-83.2v-3.5h-28.74v3.5Z"/>
    <path class="cls-2" d="m2033.35,406.69c-67.87,0-123.09,55.22-123.09,123.09v3.5h28.74v-3.5c0-46.83,34.11-86.25,79.98-93.25v205.47h28.74v-205.47c45.86,7,79.98,46.42,79.98,93.25v3.5h28.74v-3.5c0-67.87-55.22-123.09-123.09-123.09Z"/>
    <path class="cls-2" d="m1225.18,435.43c44.63,0,83.5,31.68,92.43,75.32l.7,3.43,28.16-5.76-.7-3.43c-5.6-27.38-20.62-52.3-42.29-70.19-21.97-18.13-49.78-28.11-78.3-28.11s-56.4,10.01-78.38,28.17c-21.68,17.92-36.69,42.89-42.25,70.32l-2.86,14.07,212.01,43.27c-13.65,37.01-48.74,61.61-88.52,61.61-44.63,0-83.5-31.68-92.43-75.32l-.7-3.43-28.16,5.76.7,3.43c5.6,27.38,20.62,52.31,42.29,70.19,21.97,18.13,49.78,28.11,78.3,28.11s56.39-10,78.38-28.17c21.68-17.92,36.69-42.89,42.25-70.32l2.86-14.07-212.01-43.27c13.65-37.01,48.74-61.61,88.52-61.61Z"/>
    <path class="cls-2" d="m1763.96,435.43c44.63,0,83.5,31.68,92.43,75.32l.7,3.43,28.16-5.76-.7-3.43c-5.6-27.38-20.62-52.31-42.29-70.19-21.97-18.13-49.78-28.11-78.3-28.11s-56.39,10.01-78.38,28.17c-21.68,17.92-36.69,42.89-42.25,70.32l-2.86,14.07,212.01,43.27c-13.65,37.01-48.74,61.61-88.52,61.61-44.63,0-83.5-31.68-92.43-75.32l-.7-3.43-28.16,5.76.7,3.43c5.6,27.38,20.62,52.3,42.29,70.19,21.97,18.13,49.78,28.11,78.3,28.11s56.39-10,78.38-28.17c21.68-17.92,36.69-42.89,42.25-70.32l2.86-14.07-212.01-43.27c13.65-37.01,48.74-61.61,88.52-61.61Z"/>
    <path class="cls-2" d="m2659.18,442.74c-12.06-12.05-26.17-21.3-41.56-27.4l-19.32,23.74c7.54,2.15,14.77,5.26,21.57,9.29l-47.74,58.66-47.73-58.66c6.81-4.03,14.03-7.14,21.57-9.29l-19.32-23.74c-15.39,6.11-29.5,15.35-41.55,27.4-23.25,23.25-36.06,54.16-36.06,87.04,0,48.95,28.99,93.24,73.86,112.85l3.2,1.4,11.51-26.34-3.2-1.4c-34.41-15.03-56.63-48.98-56.63-86.51,0-20.38,6.29-39.58,18.24-55.78l6.71-6.71,69.4,85.29,69.41-85.29,6.7,6.71c11.96,16.2,18.24,35.4,18.24,55.78,0,37.53-22.22,71.48-56.61,86.51l-3.2,1.4,11.51,26.34,3.2-1.4c44.85-19.61,73.84-63.9,73.84-112.85,0-32.88-12.79-63.79-36.04-87.04Z"/>
  </g>
</svg>