<svg id="Layer_3" data-name="Layer 3" xmlns="http://www.w3.org/2000/svg" viewBox="0 0 200 200"><defs><style>.cls-1{fill:#1662b2;}</style></defs><path class="cls-1" d="M132.89,64a5.57,5.57,0,0,0,5.57-5.57V51a38.46,38.46,0,0,0-76.92,0V80.91a5.58,5.58,0,1,0,11.15,0V51a27.31,27.31,0,0,1,54.62,0v7.38A5.57,5.57,0,0,0,132.89,64Z"/><path class="cls-1" d="M100,187.42a52.42,52.42,0,0,0,46.3-77,5.58,5.58,0,0,0-9.85,5.24,41.17,41.17,0,1,1-19.51-18.3,5.57,5.57,0,0,0,4.58-10.16A52.41,52.41,0,1,0,100,187.42Z"/></svg>