<svg id="Layer_3" data-name="Layer 3" xmlns="http://www.w3.org/2000/svg" viewBox="0 0 200 200"><defs><style>.cls-1{fill:none;}.cls-2{fill:#e08523;}</style></defs><circle class="cls-1" cx="100" cy="100" r="47.87"/><path class="cls-2" d="M157.4,100A57.4,57.4,0,1,0,100,157.4,57.47,57.47,0,0,0,157.4,100ZM100,147.87A47.87,47.87,0,1,1,147.87,100,47.93,47.93,0,0,1,100,147.87Z"/><path class="cls-2" d="M144.77,48.5a4.76,4.76,0,1,0,6.73,6.73L162.7,44A4.77,4.77,0,0,0,156,37.3Z"/><path class="cls-2" d="M156,162.7A4.77,4.77,0,0,0,162.7,156l-11.2-11.19a4.76,4.76,0,1,0-6.73,6.73Z"/><path class="cls-2" d="M40.67,164.09A4.75,4.75,0,0,0,44,162.7l11.19-11.2a4.76,4.76,0,1,0-6.73-6.73L37.3,156a4.76,4.76,0,0,0,3.37,8.13Z"/><path class="cls-2" d="M48.5,55.23a4.76,4.76,0,0,0,6.73-6.73L44,37.3A4.77,4.77,0,0,0,37.3,44Z"/><path class="cls-2" d="M104.76,31.93V16.09a4.76,4.76,0,0,0-9.52,0V31.93a4.76,4.76,0,1,0,9.52,0Z"/><path class="cls-2" d="M168.07,104.77H183.9a4.77,4.77,0,1,0,0-9.53H168.07a4.77,4.77,0,0,0,0,9.53Z"/><path class="cls-2" d="M95.24,168.07v15.84a4.76,4.76,0,0,0,9.52,0V168.07a4.76,4.76,0,0,0-9.52,0Z"/><path class="cls-2" d="M31.93,95.24H16.1a4.77,4.77,0,1,0,0,9.53H31.93a4.77,4.77,0,0,0,0-9.53Z"/></svg>