<svg id="Layer_3" data-name="Layer 3" xmlns="http://www.w3.org/2000/svg" viewBox="0 0 200 200"><defs><style>.cls-1{fill:#e63131;}</style></defs><path class="cls-1" d="M148,35.57a7.34,7.34,0,0,0-7.34-7.34H70.18a93.36,93.36,0,0,0-11.34,0,7.35,7.35,0,0,0,.55,14.67H70c9.32.56,21.51,2.68,28.35,8.72a15.35,15.35,0,0,1,4.44,6.41H59.39a7.35,7.35,0,0,0,0,14.7h43.24a20,20,0,0,1-4.81,7.86c-8.66,8.81-26,11.43-38.17,11a7.35,7.35,0,0,0-5.79,12.18l57.44,65.63a7.35,7.35,0,1,0,11.06-9.68L74.88,105.5c10.81-1.46,24.21-5.22,33.42-14.59a34.72,34.72,0,0,0,9.45-18.16h22.86a7.35,7.35,0,0,0,0-14.7H118a29.3,29.3,0,0,0-7.47-15.13h30.12A7.35,7.35,0,0,0,148,35.57Z"/></svg>