<?xml version="1.0" encoding="UTF-8"?>
<svg id="Layer_1" data-name="Layer 1" xmlns="http://www.w3.org/2000/svg" viewBox="0 0 512 512">
  <defs>
    <style>
      .cls-1 {
        fill: #353979;
      }

      .cls-2 {
        fill: #e43664;
      }
    </style>
  </defs>
  <g id="BESS">
    <g id="ECO_SYSTEM_-1" data-name="ECO SYSTEM -1">
      <circle class="cls-1" cx="255.84" cy="107.42" r="28.41"/>
      <path class="cls-1" d="m161.89,46.97c-6.28-10.87-20.17-14.59-31.04-8.32-10.87,6.28-14.59,20.17-8.32,31.04,6.28,10.87,20.18,14.59,31.04,8.32,10.87-6.28,14.59-20.18,8.32-31.04Z"/>
      <circle class="cls-1" cx="255.84" cy="27.88" r="22.73"/>
      <path class="cls-1" d="m157.38,141.42c7.84,13.59,25.22,18.24,38.81,10.4,13.59-7.84,18.24-25.22,10.4-38.81-7.84-13.59-25.22-18.24-38.81-10.4-13.59,7.84-18.24,25.22-10.4,38.81Z"/>
      <path class="cls-1" d="m78.7,152.88c6.28-10.87,2.55-24.77-8.32-31.04-10.87-6.28-24.77-2.55-31.04,8.32-6.28,10.87-2.55,24.77,8.32,31.04,10.87,6.28,24.77,2.55,31.04-8.32Z"/>
      <path class="cls-1" d="m349.79,46.97c-6.28,10.87-2.55,24.77,8.32,31.04,10.87,6.28,24.77,2.55,31.04-8.32,6.28-10.87,2.55-24.77-8.32-31.04-10.87-6.28-24.77-2.55-31.04,8.32Z"/>
      <path class="cls-1" d="m152.51,195.49c7.84-13.59,3.19-30.96-10.4-38.81-13.59-7.84-30.96-3.19-38.81,10.4-7.84,13.59-3.19,30.96,10.4,38.81,13.59,7.84,30.96,3.19,38.81-10.4Z"/>
      <path class="cls-1" d="m305.1,113.01c-7.84,13.59-3.19,30.96,10.4,38.81,13.59,7.84,30.96,3.19,38.81-10.4,7.85-13.59,3.19-30.96-10.4-38.81-13.59-7.84-30.96-3.19-38.81,10.4Z"/>
      <path class="cls-1" d="m432.97,152.88c6.28,10.87,20.17,14.59,31.04,8.32,10.87-6.28,14.59-20.17,8.32-31.04-6.28-10.87-20.17-14.59-31.04-8.32-10.87,6.28-14.59,20.18-8.32,31.04Z"/>
      <path class="cls-1" d="m369.56,156.68c-13.59,7.84-18.24,25.22-10.4,38.81,7.84,13.59,25.22,18.24,38.81,10.4,13.59-7.84,18.24-25.22,10.4-38.81-7.84-13.59-25.22-18.24-38.81-10.4Z"/>
      <path class="cls-1" d="m108.12,226.74c-15.67,0-28.37,12.69-28.41,28.35h56.81c-.03-15.66-12.74-28.35-28.41-28.35Z"/>
      <path class="cls-1" d="m255.84,175.6c-43.91,0-79.51,35.58-79.54,79.48h159.08c-.03-43.9-35.63-79.48-79.54-79.48Z"/>
      <path class="cls-1" d="m403.56,226.74c-15.67,0-28.37,12.69-28.41,28.35h56.81c-.03-15.66-12.74-28.35-28.41-28.35Z"/>
      <path class="cls-1" d="m28.57,232.42c-12.53,0-22.69,10.14-22.72,22.67h45.45c-.03-12.52-10.19-22.67-22.72-22.67Z"/>
      <path class="cls-1" d="m483.1,232.42c-12.53,0-22.69,10.14-22.72,22.67h45.45c-.03-12.52-10.19-22.67-22.72-22.67Z"/>
    </g>
    <g id="BESS_-_2" data-name="BESS - 2">
      <polygon class="cls-2" points="426.6 427.6 426.6 256.97 381.14 256.97 381.14 382.15 131.14 382.15 131.14 256.97 85.69 256.97 85.69 427.6 426.6 427.6"/>
      <polygon class="cls-2" points="506.14 507.15 506.14 256.97 460.69 256.97 460.69 461.7 51.6 461.7 51.6 256.97 6.14 256.97 6.14 507.15 506.14 507.15"/>
      <polygon class="cls-2" points="347.05 348.06 347.05 256.97 301.6 256.97 301.6 302.6 210.69 302.6 210.69 256.97 165.24 256.97 165.24 348.06 347.05 348.06"/>
    </g>
  </g>
</svg>