<?xml version="1.0" encoding="UTF-8"?>
<svg id="Layer_1" data-name="Layer 1" xmlns="http://www.w3.org/2000/svg" viewBox="0 0 512 512">
  <defs>
    <style>
      .cls-1 {
        fill: #353979;
      }

      .cls-2 {
        fill: #4559e5;
      }
    </style>
  </defs>
  <g id="EV">
    <g id="ECO_SYSTEM_-1" data-name="ECO SYSTEM -1">
      <circle class="cls-1" cx="404.73" cy="255.99" r="28.41"/>
      <path class="cls-1" d="m465.18,162.04c10.87-6.28,14.59-20.17,8.32-31.04-6.28-10.87-20.17-14.59-31.04-8.32-10.87,6.28-14.59,20.18-8.32,31.04,6.28,10.87,20.18,14.59,31.04,8.32Z"/>
      <circle class="cls-1" cx="484.27" cy="255.99" r="22.73"/>
      <path class="cls-1" d="m370.73,157.53c-13.59,7.84-18.24,25.22-10.4,38.81,7.84,13.59,25.22,18.24,38.81,10.4,13.59-7.84,18.24-25.22,10.4-38.81-7.84-13.59-25.22-18.24-38.81-10.4Z"/>
      <path class="cls-1" d="m359.27,78.86c10.87,6.28,24.77,2.55,31.04-8.32,6.28-10.87,2.55-24.77-8.32-31.04-10.87-6.28-24.77-2.55-31.04,8.32-6.28,10.87-2.55,24.77,8.32,31.04Z"/>
      <path class="cls-1" d="m465.18,349.94c-10.87-6.28-24.77-2.55-31.04,8.32-6.28,10.87-2.55,24.77,8.32,31.04,10.87,6.28,24.77,2.55,31.04-8.32,6.28-10.87,2.55-24.77-8.32-31.04Z"/>
      <path class="cls-1" d="m316.66,152.67c13.59,7.84,30.96,3.19,38.81-10.4,7.84-13.59,3.19-30.96-10.4-38.81-13.59-7.84-30.96-3.19-38.81,10.4-7.84,13.59-3.19,30.96,10.4,38.81Z"/>
      <path class="cls-1" d="m399.14,305.25c-13.59-7.84-30.96-3.19-38.81,10.4-7.84,13.59-3.19,30.96,10.4,38.81,13.59,7.85,30.96,3.19,38.81-10.4,7.84-13.59,3.19-30.96-10.4-38.81Z"/>
      <path class="cls-1" d="m359.27,433.13c-10.87,6.28-14.59,20.17-8.32,31.04,6.28,10.87,20.17,14.59,31.04,8.32,10.87-6.28,14.59-20.17,8.32-31.04-6.28-10.87-20.18-14.59-31.04-8.32Z"/>
      <path class="cls-1" d="m355.47,369.72c-7.84-13.59-25.22-18.24-38.81-10.4-13.59,7.84-18.24,25.22-10.4,38.81,7.84,13.59,25.22,18.24,38.81,10.4,13.59-7.84,18.24-25.22,10.4-38.81Z"/>
      <path class="cls-1" d="m285.41,108.27c0-15.67-12.69-28.37-28.35-28.41v56.81c15.66-.03,28.35-12.74,28.35-28.41Z"/>
      <path class="cls-1" d="m336.55,255.99c0-43.91-35.58-79.51-79.48-79.54v159.08c43.9-.03,79.48-35.63,79.48-79.54Z"/>
      <path class="cls-1" d="m285.41,403.71c0-15.67-12.69-28.37-28.35-28.41v56.81c15.66-.03,28.35-12.74,28.35-28.41Z"/>
      <path class="cls-1" d="m279.73,28.73c0-12.53-10.14-22.69-22.67-22.72v45.45c12.52-.03,22.67-10.19,22.67-22.72Z"/>
      <path class="cls-1" d="m279.73,483.26c0-12.53-10.14-22.69-22.67-22.72v45.45c12.52-.03,22.67-10.19,22.67-22.72Z"/>
    </g>
    <path id="EV_-_1" data-name="EV - 1" class="cls-2" d="m249.35,369.63c-62.76,0-113.64-50.88-113.64-113.64s50.88-113.64,113.64-113.64c1.89,0,3.73.19,5.6.28v-2.82,2.82s.05,0,.08,0V5.99C116.96,5.99,5.03,117.92,5.03,255.99s111.89,249.95,249.92,250v-136.64c-1.87.1-3.71.28-5.6.28Z"/>
  </g>
</svg>