<?xml version="1.0" encoding="UTF-8"?>
<svg id="Layer_1" data-name="Layer 1" xmlns="http://www.w3.org/2000/svg" viewBox="0 0 512 512">
  <defs>
    <style>
      .cls-1 {
        fill: #353979;
      }

      .cls-2 {
        fill: #39b54a;
      }
    </style>
  </defs>
  <g id="H2">
    <g id="ECO_SYSTEM_-2" data-name="ECO SYSTEM -2">
      <path class="cls-1" d="m257,506.3c12.55,0,22.73-10.18,22.73-22.73s-10.17-22.73-22.73-22.73c-.02,0-.04,0-.06,0v45.45s.04,0,.06,0Z"/>
      <path class="cls-1" d="m370.73,157.84c-13.59,7.84-18.24,25.22-10.4,38.81,7.84,13.59,25.22,18.24,38.81,10.4,13.59-7.84,18.24-25.22,10.4-38.81-7.84-13.59-25.22-18.24-38.81-10.4Z"/>
      <path class="cls-1" d="m465.19,162.35c10.87-6.28,14.59-20.18,8.32-31.05-6.28-10.87-20.18-14.59-31.05-8.32-10.87,6.28-14.59,20.18-8.32,31.05,6.28,10.87,20.18,14.59,31.05,8.32Z"/>
      <path class="cls-1" d="m359.27,79.16c10.87,6.28,24.77,2.55,31.05-8.32,6.28-10.87,2.55-24.77-8.32-31.05-10.87-6.28-24.77-2.55-31.05,8.32-6.28,10.87-2.55,24.77,8.32,31.05Z"/>
      <path class="cls-1" d="m316.66,152.97c13.59,7.84,30.96,3.19,38.81-10.4,7.84-13.59,3.19-30.96-10.4-38.81-13.59-7.84-30.96-3.19-38.81,10.4-7.84,13.59-3.19,30.96,10.4,38.81Z"/>
      <path class="cls-1" d="m285.41,108.57c0-15.69-12.72-28.41-28.41-28.41-.02,0-.04,0-.06,0v56.82s.04,0,.06,0c15.69,0,28.41-12.72,28.41-28.41Z"/>
      <path class="cls-1" d="m359.27,433.44c-10.87,6.28-14.59,20.18-8.32,31.05,6.28,10.87,20.18,14.59,31.05,8.32,10.87-6.28,14.59-20.18,8.32-31.05s-20.18-14.59-31.05-8.32Z"/>
      <path class="cls-1" d="m285.41,404.03c0-15.69-12.72-28.41-28.41-28.41-.02,0-.04,0-.06,0v56.82s.04,0,.06,0c15.69,0,28.41-12.72,28.41-28.41Z"/>
      <path class="cls-1" d="m355.47,370.03c-7.84-13.59-25.22-18.24-38.81-10.4-13.59,7.84-18.24,25.22-10.4,38.81,7.84,13.59,25.22,18.24,38.81,10.4,13.59-7.84,18.24-25.22,10.4-38.81Z"/>
      <path class="cls-1" d="m399.14,305.56c-13.59-7.85-30.96-3.19-38.81,10.4-7.84,13.59-3.19,30.96,10.4,38.81,13.59,7.84,30.96,3.19,38.81-10.4,7.84-13.59,3.19-30.96-10.4-38.81Z"/>
      <circle class="cls-1" cx="484.27" cy="256.3" r="22.73" transform="translate(-34.8 80.88) rotate(-9.22)"/>
      <path class="cls-1" d="m465.19,350.26c-10.87-6.28-24.77-2.55-31.05,8.32-6.28,10.87-2.55,24.77,8.32,31.05,10.87,6.28,24.77,2.55,31.05-8.32,6.28-10.87,2.55-24.77-8.32-31.05Z"/>
      <circle class="cls-1" cx="404.73" cy="256.3" r="28.41" transform="translate(13.05 532.14) rotate(-67.5)"/>
      <path class="cls-1" d="m279.73,29.03c0-12.55-10.17-22.73-22.73-22.73-.02,0-.04,0-.06,0v45.45s.04,0,.06,0c12.55,0,22.73-10.18,22.73-22.73Z"/>
      <path class="cls-1" d="m336.55,256.3c0-43.93-35.61-79.55-79.55-79.55-.02,0-.04,0-.06,0v159.09s.04,0,.06,0c43.93,0,79.55-35.61,79.55-79.55Z"/>
    </g>
    <polygon class="cls-2" points="254.5 177 254.5 336 135 336 135 508 4 508 4 4 135 4 135 177 254.5 177"/>
  </g>
</svg>