<?xml version="1.0" encoding="UTF-8"?>
<svg id="Layer_1" data-name="Layer 1" xmlns="http://www.w3.org/2000/svg" viewBox="0 0 512 512">
  <defs>
    <style>
      .cls-1 {
        fill: #353979;
      }

      .cls-2 {
        fill: #bccafc;
      }
    </style>
  </defs>
  <g id="OUTLOOK">
    <g id="ECO_SYSTEM_-1" data-name="ECO SYSTEM -1">
      <circle class="cls-1" cx="107.27" cy="256.31" r="28.41"/>
      <path class="cls-1" d="m46.81,350.26c-10.87,6.28-14.59,20.17-8.32,31.04,6.28,10.87,20.17,14.59,31.04,8.32,10.87-6.28,14.59-20.18,8.32-31.04-6.28-10.87-20.18-14.59-31.04-8.32Z"/>
      <circle class="cls-1" cx="27.73" cy="256.31" r="22.73"/>
      <path class="cls-1" d="m141.26,354.77c13.59-7.84,18.24-25.22,10.4-38.81-7.84-13.59-25.22-18.24-38.81-10.4-13.59,7.84-18.24,25.22-10.4,38.81,7.84,13.59,25.22,18.24,38.81,10.4Z"/>
      <path class="cls-1" d="m152.72,433.45c-10.87-6.28-24.77-2.55-31.04,8.32-6.28,10.87-2.55,24.77,8.32,31.04,10.87,6.28,24.77,2.55,31.04-8.32,6.28-10.87,2.55-24.77-8.32-31.04Z"/>
      <path class="cls-1" d="m46.81,162.36c10.87,6.28,24.77,2.55,31.04-8.32,6.28-10.87,2.55-24.77-8.32-31.04-10.87-6.28-24.77-2.55-31.04,8.32-6.28,10.87-2.55,24.77,8.32,31.04Z"/>
      <path class="cls-1" d="m195.33,359.64c-13.59-7.84-30.96-3.19-38.81,10.4-7.84,13.59-3.19,30.96,10.4,38.81,13.59,7.84,30.96,3.19,38.81-10.4,7.84-13.59,3.19-30.96-10.4-38.81Z"/>
      <path class="cls-1" d="m112.86,207.05c13.59,7.84,30.96,3.19,38.81-10.4,7.84-13.59,3.19-30.96-10.4-38.81-13.59-7.85-30.96-3.19-38.81,10.4-7.84,13.59-3.19,30.96,10.4,38.81Z"/>
      <path class="cls-1" d="m152.72,79.18c10.87-6.28,14.59-20.17,8.32-31.04-6.28-10.87-20.17-14.59-31.04-8.32-10.87,6.28-14.59,20.17-8.32,31.04,6.28,10.87,20.18,14.59,31.04,8.32Z"/>
      <path class="cls-1" d="m156.53,142.59c7.84,13.59,25.22,18.24,38.81,10.4,13.59-7.84,18.24-25.22,10.4-38.81-7.84-13.59-25.22-18.24-38.81-10.4-13.59,7.84-18.24,25.22-10.4,38.81Z"/>
      <path class="cls-1" d="m226.58,404.03c0,15.67,12.69,28.37,28.35,28.41v-56.81c-15.66.03-28.35,12.74-28.35,28.41Z"/>
      <path class="cls-1" d="m175.45,256.31c0,43.91,35.58,79.51,79.48,79.54v-159.08c-43.9.03-79.48,35.63-79.48,79.54Z"/>
      <path class="cls-1" d="m226.58,108.59c0,15.67,12.69,28.37,28.35,28.41v-56.81c-15.66.03-28.35,12.74-28.35,28.41Z"/>
      <path class="cls-1" d="m232.26,483.58c0,12.53,10.14,22.69,22.67,22.72v-45.45c-12.52.03-22.67,10.19-22.67,22.72Z"/>
      <path class="cls-1" d="m232.26,29.05c0,12.53,10.14,22.69,22.67,22.72V6.32c-12.52.03-22.67,10.19-22.67,22.72Z"/>
    </g>
    <polygon id="OUTLOOK_-_1" data-name="OUTLOOK - 1" class="cls-2" points="257 52 257 461 384.98 256.52 384.98 256.48 257 52"/>
    <polygon id="OUTLOOK_-_2" data-name="OUTLOOK - 2" class="cls-2" points="513 256.5 385 52 385 256.5 385 461 513 256.5"/>
  </g>
</svg>